<?xml version="1.0" encoding="UTF-8"?>
<svg id="a" data-name="Layer 1" xmlns="http://www.w3.org/2000/svg" viewBox="0 0 250 250">
  <defs>
    <style>
      .b {
        fill: #5c8d37;
      }

      .c {
        fill: #bcbcbd;
      }

      .d {
        fill: #0c0b0a;
      }

      .e {
        fill: #030202;
      }

      .f {
        fill: #e72e2b;
      }

      .g {
        fill: #c1c0c0;
      }

      .h {
        fill: #09090b;
      }

      .i {
        fill: #f9fbfb;
      }

      .j {
        fill: #df312f;
      }

      .k {
        fill: #a6382d;
      }

      .l {
        fill: #a3d95e;
      }

      .m {
        fill: #c0bfbf;
      }

      .n {
        fill: #a1382c;
      }

      .o {
        fill: #bcbdbd;
      }

      .p {
        fill: #a03c2b;
      }

      .q {
        fill: #9f3628;
      }

      .r {
        fill: #030303;
      }

      .s {
        fill: #070d06;
      }

      .t {
        fill: #c1c1c1;
      }

      .u {
        fill: #090706;
      }

      .v {
        fill: #f8fafc;
      }

      .w {
        fill: #0d140b;
      }

      .x {
        fill: #d47866;
      }

      .y {
        fill: #c3c3c3;
      }

      .z {
        fill: #c4c4c4;
      }

      .aa {
        fill: #b33c30;
      }

      .ab {
        fill: #090a0b;
      }

      .ac {
        fill: #a8392f;
      }

      .ad {
        fill: #a1392f;
      }

      .ae {
        fill: #1281b1;
      }

      .af {
        fill: #b03b2e;
      }

      .ag {
        fill: #11170e;
      }

      .ah {
        fill: #a6362c;
      }

      .ai {
        fill: #ad3d30;
      }

      .aj {
        fill: #badef3;
      }

      .ak {
        fill: #192013;
      }

      .al {
        fill: #040403;
      }

      .am {
        fill: #f9f9f9;
      }

      .an {
        fill: #df302c;
      }

      .ao {
        fill: #060504;
      }

      .ap {
        fill: #c5c5c5;
      }

      .aq {
        fill: #e9e9e9;
      }

      .ar {
        fill: #f8f8f8;
      }

      .as {
        fill: #0e150d;
      }

      .at {
        fill: #040303;
      }

      .au {
        fill: #73aa40;
      }

      .av {
        fill: #c14437;
      }

      .aw {
        fill: #d88576;
      }

      .ax {
        fill: #bae1f7;
      }

      .ay {
        fill: #86ad5f;
      }

      .az {
        fill: #ae402e;
      }

      .ba {
        fill: #c6c5c5;
      }

      .bb {
        fill: #0f9fd7;
      }

      .bc {
        fill: #f0f1f1;
      }

      .bd {
        fill: #110806;
      }

      .be {
        fill: #dfd5d4;
      }

      .bf {
        fill: #b94136;
      }

      .bg {
        fill: #b12522;
      }

      .bh {
        fill: #bfbebe;
      }
    </style>
  </defs>
  <path class="ab" d="M168.81,55.82c1.47-.25,2.59-.16,3.57,1.04,3.29,4.02-5.05,7.25-7.4,9.35-.89.8-1.6,1.74-2.37,2.65-.68,0-.19-3.43-.11-4.01.51-3.28,2.61-8.4,6.31-9.04Z"/>
  <path class="ax" d="M171.33,57.5c.46.46.55,2-.06,2.47l-7.41,5.28c-.22-2.17,2.73-7.34,4.72-7.97.65-.2,2.26-.26,2.74.22Z"/>
  <path class="h" d="M168.61,76.13c.47-2.77,4.68-6.98,7.6-6.65,2.89.33,4,4.27,1.12,5.46-2.69,1.11-5.95.18-8.71,1.19Z"/>
  <path class="aj" d="M177.47,71.45c.24.23.35.79.3,1.13-.32,2.01-5.34,1.54-6.92,1.88-.8-.76,2.86-2.91,3.43-3.12.93-.35,2.39-.66,3.19.12Z"/>
  <path class="r" d="M152.72,210.35c.1.14,2.2,1.1,2.92,1.7,4.07,3.39,5.86,10.14,2.09,14.39-1.7,1.92-11.48,8.17-13.84,8.48-3.84.51-9.68-1.25-10.16-5.7-.13-1.17-.06-2.97,0-4.18.24-4.46,1.72-8.54,2.23-13.12.28-2.51,1.3-2.79,1.87-4.55.23-.71.88-5.3.63-5.65-2.09.67-4.62,1.06-6.82,1.13-1.78.06-3.4-.3-5.02-.31-3.17-.02-6.35.51-9.51.3-2.22-.14-4.35-.82-6.54-1.13.27,1.56.25,3.61.63,5.09.45,1.76,1.58,2.32,1.88,4.82.57,4.78,2.11,9.55,2.25,14.22.16,5.31-2.19,8.38-7.69,8.8-4.28.32-12.62-5-15.76-7.95-4.27-4-2.95-11.6,1.39-15.08.71-.57,3.03-1.54,3.09-2.22.04-.5-.33-1.25-.31-1.95.09-5.47-1.94-10.91-2.48-16.47-.61-6.28-1.52-15.35,5.56-18.16l-4.45-15.19c-1.1.36-2.48.23-3.49.83-1.59.96-5.37,6.26-7.09,7.97-4.53,4.51-12.67,10.67-18.96,5.54-7.88-6.42.23-20.48,4.66-26.83s9.97-12.14,16.49-16.46c-.49-3.49-1.69-6.88-2.39-10.36-2.49-12.32-2.99-26.72,5.78-36.75.63-.72,2.19-1.76,2.48-2.28.45-.79-.29-2.25,1.14-4.14,3.96-5.27,12.8-3.22,17.15-6.57,1.86-1.43,3.15-4.13,6.01-3.62-.05-1.72.06-3.46,0-5.18-.4-13.62-1.16-22.08,3.42-35.35,1.03-3,3.07-9.03,6.79-9.41s14.01,4.54,13.96,9.11c-.03,2.32-6.29,9.68-7.76,12.46-3.54,6.66-4.91,14.87-4.41,22.37.06.93.44,4.13.76,4.82.44.96,1.92.95,2.77,1.41,2.14,1.15,2.68,2.69,5.54,2.57.76-.03,1.43-.32,2.22-.32,2.79.02,10.05,2.06,10.7,5.25.17.84-.57,1.48-.4,1.75.2.33,3.19,1.59,3.87,2,12.2,7.47,14.21,21.75,13.02,34.97-.52,5.79-2.07,11.51-2.74,17.25,3.26,2.68,6.5,5.04,9.44,8.15,6.44,6.79,18.64,23.49,13.16,32.99-1.3,2.26-4.03,3.76-6.61,3.99-6.32.57-12.32-5.35-16.33-9.62-1.13-1.21-3.71-4.91-4.74-5.58-.66-.43-2.92-1.01-3.49-.43l-5.65,14.67c1.26.86,2.61,1.18,3.69,2.38,4.47,4.95,1.83,18.15.63,24.32-.34,1.73-1.39,4.54-1.53,6.01-.07.81.45,1.68.44,2.45,0,.57-.69,2.06-.49,2.34Z"/>
  <path class="f" d="M151.59,131.39c.13.4.23.67.66.78,1.68.14,3.16.56,4.45,1.25,1.71,3.75,4,7.87,7.16,10.54.39,1.44.97,2.9.84,4.46,1.01.08.42-1.45,1.11-2.23l.43.16c2.93,4.94,7.9,9,13.24,11.01.24-.01.85.9.44-.58-.81-2.94-4.56-5.46-6.58-7.52-3.49-2.81-6.29-6.46-8.93-10.05-.44-.98-1.84-2.65-1.95-3.51-.16-1.27.7-3.26.84-4.58,1.07.45,1.89,1.26,2.79,1.95.31.96,1.18,2.08,1.89,2.92,7.1,6.96,13.63,14.32,16.43,24.21l1.77,3.29c.09,2.84-.56,4.91-2.79,6.7-4.43,1.2-8.47-1.72-11.87-4.33-3.56-2.74-7.24-6.08-9.83-9.71l-.97-.42c-4-.62-7.39-2.18-8.6-6.25-.49-.51-1.14-.68-1.94-.51l-3.99.29c-2.12.28-2.12-1.11-1.84-2.8.95-3.43,5.65-2.3,8.08-3.77-1.39-1.11-3.72-.76-5.35-.34-1.01.26-2.76,1.7-3.01.34-.51-2.75.87-5.17,3.56-5.93,1.53-.43,3.83-.06,4.9-.4.37-.12.54-.4.47-.79-.37-.08-.76-.16-1.11-.28-2.01-.72-4.09-.74-6.24-.04-.44-.1-.5-.55-.17-1.35,1.01-2.07,2.9-2.82,5.18-2.82.54,0,.85.3.96.31Z"/>
  <path class="f" d="M85.47,139.49c-2.18,3.8-5.16,7.06-8.93,9.77-1.94,2.11-5.43,4.47-6.3,7.26-.15.48-.21.47.16.84,5.07-1.76,10.43-6.15,13.34-10.69l.6-.2c.26.6.34,1.01.53,1.56.1.29.21.88.59.39.1-.13.24-2.61.36-3.13.18-.86.52-1.63.76-2.45l.48.26c.61.09,6.39-8.56,6.49-10.31,2.59-1.57,8.03-2.72,10.32-.14.48.54,1.66,3.21.67,3.48-1.6-.39-2.72-1.16-4.44-1.12-.42,0-3.36.45-3.48.58-.16.18.25.84.42.84h4.46c.42,0,2.7,1.04,3.08,1.39.54.5.79,1.27.97,1.96.17.59.14,1.13-.09,1.62-2.53-.05-5.01.16-7.44.61-.39.26-.95.5-.27.97,1.78,1.26,6.75-.28,7.81,3.49.21.93.15,1.79-.2,2.57l-7.16-.08c-1.64,4.17-4.32,6.22-8.82,6.76l-.99.37c-3.04,3.51-6.34,6.75-9.92,9.73-3.21,2.31-7.97,5.65-11.97,4.09-2.25-1.99-2.59-3.42-2.51-6.42l1.49-2.72c2.02-6.03,4.96-11.88,9.13-16.76,3.61-3.55,6.93-7.12,9.97-10.71l-.23-.52c.82-.6,1.62-1.38,2.63-1.67.48.11,1.33,3.58,1.14,4.16-.09.28-2.32,3.76-2.65,4.21Z"/>
  <path class="bg" d="M130.39,102.92c-1.81-.51-3.82-1.34-5.49-2.18-2.64-1.34-4.06-3.05-7.24-3.36-5.52-.54-10.66,1.08-16.07,1.71-4.94,2.26-3.4,8.68-4.4,13.04-.08.24-.17.24-.28,0-.93-.52-.98,1.84-.96,2.53.04,1.54.5,3.5,2.32,3.62l.32.55c-.28.15-.78.27-.81.3-.34.39,2,8.76,2.21,10.02-2.26-.11-6.15.79-8.09,1.95-.19-.2-.38-.4-.53-.63s-.29-.44-.35-.67c-3-11.89-5.56-26.12-2.29-38.12,1.12-4.09,3.34-8.53,5.97-11.66,1.21.26,6.04,2.48,6.36,3.55.49,1.64-.88,4.59-1.05,6.36-.15,1.57-.13,6.83,1.13,7.79.82.62,2.16.26,3.12.08,4-.74,10.49-3.94,14.28-3.53,4,.44,8.89,6.07,11.88,8.63Z"/>
  <path class="aw" d="M154.1,105.99c.47-.28.3-1.04.25-1.5-.38-3.31-3.95-8.36-1.22-11.34,1.86-2.03,5.06-2.53,6.83-.14,4.82,6.5.69,29.33-1.76,37.05-.15.46-.06.91-.75.77-1.36-.74-3.21-1.17-4.74-1.4l1.95-13.4.4-.49c1.91.21,2.25-2.21,2.25-3.66,0-.9-.09-3.36-.98-3.39-.72,2.14-2.97-1.26-2.23-2.51Z"/>
  <path class="bb" d="M111.98,191.96c1.58-4.03,1.05-9.27-.83-13.12,2,1.81,3.65,4.2,5.07,6.51.96,1.56,2.66,5.98,1.91,1.03h12.14c1.46,0-.07,2.63.56,2.79l4.37-7.07c.82-1.07,1.59-2.23,2.74-2.98-1.63,3.86-2.71,8.14-1.39,12.28.42,1.41-.65,2.52-1.63,3.41-4.39,3.99-13.91,3.93-19.04,1.45-1.61-.78-4.51-2.27-3.88-4.3Z"/>
  <path class="f" d="M109.46,179.68l.16.9c-1.82.78-2.2,2.74-2.48,4.56-.36,4.31-.54,8.62-.53,12.94-.51.22-1.14.23-1.89.02-1.65.07-2.75.03-4.4.48-.91.25-1.88.9-2.56,1.07-.34.09-.46.24-.71-.16-.23-.37-1.1-6.2-1.22-7.16-.5-4.15-1.01-9.23.24-13.22.39.2.66.65.81,1.36,1.77-.68,4.3-3.62,2.54-5.26.11-.05.27-.37.53-.43,3.99-1.01,7.73,1.51,9.51,4.9Z"/>
  <path class="f" d="M150.19,175.49c-2.57,1.14,1.35,6.55,3.35,4.74.92,4.04.49,8.01-.04,12.1-.33,2.58-1.01,5.14-1.36,7.72-1.32-.12-2.25-1-3.56-1.32-1.4-.35-3.37-.48-4.81-.36l-1.02.1c-.05-3.96-.15-7.93-.29-11.94-.25-2.4-.55-4.79-2.8-6.04l.22-.82c2.25-3.72,6.05-6.2,10.32-4.19Z"/>
  <path class="j" d="M94.68,80.04c-1.01,2.63-2.74,4.86-3.87,7.44-1.26,2.86-2.07,5.83-2.51,8.93-1.66,11.81.81,23.3,3.59,34.71-.38.23-1.83,1.96-2.23,1.67-4.99-17.07-10.7-39.25,4.46-52.89.24-.15.41.1.56.14Z"/>
  <path class="ae" d="M111.98,191.96c.52,2.3,4.07,3.93,6.15,4.59,5.38,1.71,16.21,1.35,18.4-5.15.59,1.87,2.85,3.6,2.77,5.4-.14,3.07-1.82,3.61-4.57,3.82-4.66.36-16.3.71-20.58-.08-1.9-.35-3.72-.62-4.04-2.65-.54-3.45.88-3.38,1.88-5.93Z"/>
  <path class="bg" d="M105.84,152.32c-.16.38-.67.66-.78,1.04-.3,1.01,1.38,8.78,1.76,10.41.81,3.52,2.39,9.91,4.33,12.84-2.73-1.83-5.11-3.17-8.37-3.91l-.57-.13c-1.39-5.75-2.75-11.51-4.09-17.28l.47-.45c1.3-.46,2.78-.24,4.18-.7,1.14-.37,2.01-1.25,3.07-1.81Z"/>
  <path class="bg" d="M105.56,146.46c1.01,3.6-1.97,6.54-5.58,6.14-.37-1.59,1.27-1.55,1.95-2.51l-3.62-.84c.03.77.73.84.51,1.74-.1.41-2.2,3.19-2.6,3.56-2,1.81-5.11,2.08-7.67,1.96,1.54,1.05-.31,2.56-1.25,3.63-4.33,4.92-14.11,15.69-20.79,9.76,5.51.48,11.13-3.88,15.07-7.39,1.6-1.42,5.37-6.12,6.53-6.86,1.54-.98,4.34-.62,6.71-2.5,1.55-1.23,2.37-3.96,3.1-4.43,1.22-.78,7.35,0,7.65-.31v-1.96Z"/>
  <path class="bg" d="M144.34,146.46c.08.54-.12,1.28-.01,1.77.27,1.18,6.25-.3,7.55.32.5.24,1.87,3.39,2.93,4.32,2.42,2.12,5.58,1.73,7.22,2.83.52.35.66,1.14,1.14,1.65,3.46,3.74,11.62,11.53,16.59,12.43,1.26.23,2.48-.1,3.64.41-6.78,5.45-16.45-5.16-20.79-10.04-.3-.33-2.04-2.25-2.07-2.41-.08-.43.7-.68.54-1.22-2.69.14-5.38-.3-7.4-2.22-.37-.35-2.44-3.03-2.53-3.35-.21-.75.5-.81.73-1.4l-3.91.56c.78,1.07,2.43.68,2.23,2.51-3.68.53-6.88-2.46-5.86-6.14Z"/>
  <path class="aw" d="M84.36,132.79c.86-.1.57.23.34.76-1.31,3.03-7.81,8.54-10.25,11.52s-4.84,7.12-6.51,10.79c-.97,2.12-1.5,4.78-2.77,6.71-.32.48-.48.91-1.17.92.26-9.5,12.87-25.2,20.36-30.7Z"/>
  <path class="bg" d="M139.87,179.68c.19.92,1.06.77,1.74,1.75,2.2,3.16,1.45,12.03,1.6,15.99.02.54-.29,1.12.56.96-.42.04-2.51.83-2.79.56.23-3.44,1.5-13.14-.14-15.91-.32-.55-.65.03-.7.42-.45,2.99.46,6.8-.56,9.91-.97-.51-1.35-2-1.59-3.01-.92-3.99-.17-7.29,1.87-10.66Z"/>
  <path class="aw" d="M166.1,133.07c7.31,5.63,19.8,20.95,20.09,30.42-.68-.01-.86-.44-1.17-.92-1.67-2.62-2.48-6.36-3.89-9.22-1.66-3.37-4.35-7.09-6.79-9.95-2.2-2.59-7.46-6.88-8.46-9.68-.17-.48-.74-.71.23-.64Z"/>
  <path class="ar" d="M158,221.54c-1.05-.37-1.73-1.3-2.78-1.82-7.62-3.85-15.02,1.52-19.82,7.13-.2-2.56,2.18-5.15,4.04-6.7,3.93-3.3,8.64-4.72,13.72-3.39,2.2.58,5.3,2.04,4.84,4.79Z"/>
  <path class="ar" d="M113.65,226.28c-.31.35-2.15-2.04-2.51-2.37-4.75-4.42-10.76-7.86-17.27-4.71-.78.38-1.94,1.59-2.4,1.78-.54.23-.44-.37-.43-.71.1-2.59,4.66-4.11,6.85-4.31,6.41-.57,14.48,3.75,15.76,10.32Z"/>
  <path class="ar" d="M157.17,217.07c-1.12-.31-2.06-1.05-3.19-1.41-3.16-.98-7.39-.77-10.47.44-1.4.55-2.54,1.52-3.91,2.09,2.67-7.81,14.57-9.75,17.57-1.12Z"/>
  <path class="am" d="M109.46,217.91c-1.54-.65-2.88-1.8-4.47-2.36-3.78-1.35-7.3-1.26-11.02.12-.65.24-1.37,1.14-2.08.71,3.28-8.2,15.06-6.13,17.57,1.53Z"/>
  <path class="bg" d="M109.46,179.68c1.74,3.31,2.16,6.64,1.26,10.33-.06.23-.74,2.87-1.26,2.23l-.28-9.49c-.25-.03-.36-.04-.56.13-1.57,1.34-.57,13.48-.56,16.05l-3.35-.84c.46-.02.93.02,1.4,0,.24-3.93-.55-13.92,1.83-17.01.63-.82,1.47-.59,1.52-1.41Z"/>
  <path class="m" d="M156.33,224.33c-.08,1.22-1.81,2.53-2.91,2.52-2.37-.01-7.89-1.72-10.2-2.67-.33-.13-1.88-.68-1.68-1.11.19-.4,2.29-1.58,2.9-1.53,3.85,1.31,7.79,2.5,11.88,2.78Z"/>
  <path class="t" d="M107.51,222.93c-3.38,1.28-8.27,3.28-11.87,3.36-1.03.02-2.75-1.1-2.92-2.1-.11-.68.31-.34.7-.41,2.56-.47,4.95-.79,7.51-1.43,2.73-.68,4.36-2.37,6.58.58Z"/>
  <path class="j" d="M98.58,154.84l4.18,17.86c-.51-.12-1.35.29-1.63-.46l-4.4-15.44c-.09-.91,1.08-1.69,1.85-1.96Z"/>
  <path class="y" d="M152.98,227.41c-.7.64-2.93,2.22-3.75,2.24-1.24.04-11.03-2.96-11.03-3.78.62-.55,1.48-1.8,2.37-1.79.59,0,4.46,1.79,5.66,2.13,2.17.62,4.5,1.07,6.76,1.2Z"/>
  <path class="ap" d="M110.58,225.72c-2.88.92-7.8,3.41-10.75,3.36-1.09-.02-2.88-1.4-3.76-2.1,4.21-.58,8.39-1.47,12.19-3.45.49.15,2.68,1.7,2.32,2.19Z"/>
  <path class="aw" d="M151.59,131.39c7.1.69,10.54,6.12,12.27,12.56-1.07.75-2.48-1.71-3.02-2.42-1.23-1.65-2.75-3.95-3.73-5.76-.31-.56-.84-2.44-1.05-2.58-.37-.25-4.38.27-5.04-1.37l.56-.42Z"/>
  <path class="v" d="M106.4,200.33c.65.59,1.33,4.59,0,3.91-2.79-1.66-5.54-.6-8.37.28-.26-1.79-1.21-2.19.57-3.47,2.14-1.53,5.4-1.51,7.79-.72Z"/>
  <path class="i" d="M143.22,204.24l-.72.43c-.77.07-.26-4.2.72-4.34,2.53-.56,9.89-.21,8.11,3.79-.11.24-.17.58-.47.65-.2.05-3.04-1.01-3.88-1.09-1.19-.11-2.72-.04-3.76.55Z"/>
  <path class="aw" d="M70.41,157.35l13.53-11.44c.68-.14.31.31.41.56-.12.76-.5,1.37-.97,1.96-1.99,2.49-9.25,8.92-12.32,9.2-.46.04-.41-.03-.65-.28Z"/>
  <path class="aw" d="M179.49,157.35c-2.85.16-5.45-2.12-7.66-3.91-2.43-1.97-5.01-4.17-6-7.25.19-.21.09-.49.56-.15l13.11,11.31Z"/>
  <path class="ap" d="M100.54,229.64c2.76-.34,5.49-1.12,8.09-2.1.85-.32,2.18-1.48,2.94-1,2.68,1.73-1.4,2.9-2.94,3.51-2.84,1.12-5.9,2.61-8.09-.41Z"/>
  <path class="ap" d="M103.33,220.7c-.26.34-7.33,2-8.32,2.15-1.25.19-4.02,1.06-2.68-1.01,1.5-2.31,6.06-2.8,8.56-2.46.37.05,2.98.61,2.44,1.32Z"/>
  <path class="an" d="M142.38,208.98c-.8-5.09,8.04-4.63,8.64-1.53s-2.42,1.06-4.31.96c-1.61-.09-2.8.26-4.33.57Z"/>
  <path class="z" d="M156.87,223.75c-.41.29-6.33-1.18-7.29-1.46l-4.12-1.59c3.09-1.39,8.45-1.38,10.89,1.24.36.38,1.11,1.39.53,1.81Z"/>
  <path class="aw" d="M93.56,132.79c.57.37.23,1.12.06,1.6-.52,1.44-5.22,8.79-6.38,9.24-.82.32-.69-.25-.65-.79,1.2-4.15,3.22-7.76,6.97-10.05Z"/>
  <path class="ba" d="M148.24,230.2c-.63.67-2.27,1.98-3.14,1.9-1.08-.1-4.98-1.68-6.17-2.22-.48-.22-1.96-.84-2.24-1.05-.66-.5.32-2.09,1.3-1.94.87.13,3.52,1.61,4.73,2,1.8.58,3.68.9,5.52,1.32Z"/>
  <path class="an" d="M106.67,208.7c-1.49-.23-2.77-.64-4.33-.57-1.6.07-4.47,1.89-4.31-.67.2-3.18,9.47-4.04,8.64,1.23Z"/>
  <path class="an" d="M136.52,221.82c-.52.44-.57-.25-.52-.66.26-2.34,1.45-4.72,1.85-7.09.26-1.55-.38-3.6,1.21-4.65.65-.43,1.97-.8,1.95.27,0,.62-1.33,1.15-1.14,2.5.1.7,1.12,1.23,1.12,1.41,0,.2-1.99,2.43-2.37,3.2-.57,1.13-.73,2.44-1.23,3.51-.1.21-.79,1.46-.86,1.52Z"/>
  <path class="an" d="M113.09,221.82c-1.89-1.4-1.83-3.91-2.92-5.87-.32-.58-1.73-2.16-1.78-2.4-.1-.49.74-1.22.76-1.91.03-1.18-1.35-1.73-1.08-2.94,3.66-.16,2.81,3.03,3.14,5.37s1.94,5.15,1.88,7.75Z"/>
  <path class="aw" d="M150.19,175.49c2.58,1.22,2.74,2.09,3.35,4.74-1.24,4.04-7.72-5.14-3.35-4.74Z"/>
  <path class="aw" d="M99.42,175.21c4.19.3-3.74,9.75-3.35,3.91.68-2.16,1.26-3.01,3.35-3.91Z"/>
  <path class="q" d="M173.35,149.25c-.76-.23-1.45-.91-2.08-1.41-1.26-1-4.31-3.22-5.18-4.31-.79-1-1.11-3.09-1.67-4.33,3.45,2.81,5.85,6.91,8.93,10.05Z"/>
  <path class="ah" d="M76.55,149.25c2.58-2.81,6.75-6.9,8.93-9.77-.41,3.23-2.07,4.49-4.33,6.41-1.36,1.16-3.07,2.4-4.6,3.36Z"/>
  <path class="aa" d="M107.51,144.79c1.07-3.38-.76-6.21-.84-9.49,1.79.39,2.37,3.86,2.5,5.45s.41,4.07-1.67,4.04Z"/>
  <path class="o" d="M143.22,200.33c-.08.98-.43,2.02-.52,2.97-.05.54-.32,1.08.52.93-.63.36-1.27,1.22-1.63,1.86s-.21,1.79-1.18,1.08c-.57-.42.09-5.05.44-5.73s1.67-.97,2.36-1.12Z"/>
  <path class="ai" d="M142.38,144.79c-.47.44-1.33-.25-1.51-.85-.6-2.03.19-7.6,2.34-8.64.3,2-.95,3.8-1.11,5.72-.07.8.41,3.64.27,3.77Z"/>
  <path class="c" d="M106.4,200.33c.8.27,1.62.23,2.02,1.19.21.51.76,4.22.75,4.84,0,.33-.13.53-.44.64-1.23.41-.87-.53-1.34-1.38-.2-.36-.98-1.23-.99-1.38,0-.02.32.05.25-.39-.17-1.2-.39-2.28-.25-3.51Z"/>
  <path class="k" d="M105.56,139.76c.34,1.27.34,2.27.28,3.63-2.64-.95-4.91-1.75-7.81-1.39,2.05-1.38,4.86-.96,7.12-1.11.79-.05.29-.69.41-1.12Z"/>
  <path class="bh" d="M113.09,229.08c-.82,3.02-4.71,3.57-7.41,3.36-.48-.04-.92.03-1.24-.43,1.49-.33,2.95-.67,4.4-1.18s2.75-1.39,4.25-1.75Z"/>
  <path class="g" d="M144.33,232.43c.05.41-.73.5-1,.53-2.78.31-6.1-.59-7.37-3.32l8.37,2.79Z"/>
  <path class="av" d="M106.95,150.65c.41-.9,1.14-6.24,2.32-3.29s1.11,3.69-2.32,3.29Z"/>
  <path class="bf" d="M142.66,150.37c-.53-.04-2.36.24-2.46-.41-.03-.16.68-3.1.8-3.21.15-.13,1.06-.04,1.26.25.26.39.16,2.66.4,3.37Z"/>
  <path class="ad" d="M145.45,133.9c.02.74-.28.92.63.77.96-.15,1.84-.53,2.84-.5.84.03,2.02.79,2.94,1.12-.89.17-1.74-.3-2.61-.26-1.78.08-5.75,2.86-3.8-1.13Z"/>
  <path class="bc" d="M147.68,209.82l-2.79.98c-.61.25-5.33,2.96-3.23.4,1.27-1.55,4.22-1.44,6.02-1.37Z"/>
  <path class="aq" d="M107.79,212.05c-1.3.18-2.13-.94-3.25-1.35l-2.89-1.15c2.08-.12,5.73-.11,6.13,2.51Z"/>
  <path class="p" d="M139.03,141.44c-.02.67.22,1.5-.42,1.95-2.18-.67-1.05-1.35.42-1.95Z"/>
  <path class="az" d="M112.53,143.11c-.04.06-1.31.37-1.39.28v-1.39c.43-.13,1.72.66,1.39,1.11Z"/>
  <path class="u" d="M99.42,109.62c0-.29-.16-2.39.55-1.67,1.18,1.19-.11,7.23.27,9.05-.19,1.21-.79,1.36-1.66,1.83-3.2.19-3.58-4.08-2.93-6.42.17-.6.5-1.56,1.25-.97-.02.23.03.47,0,.69l.52.33c-.88,3.48,1.51,7.39,1.7,1.19-.22-1.44-.12-2.78.29-4.04Z"/>
  <path class="be" d="M154.1,105.99c.36.47.91,3.43,2.23,2.51.34,1.33.76,5.6-.55,6.3-.39.21-.42.06-.71-.14-1.87-1.3-1.4-6.82-1.52-8.95.14.11.48.18.56.28Z"/>
  <path class="be" d="M96.91,112.13h.28c1.49,1.07,1.02-2.02,2.23-2.51.04,1.24,1.14,8.46-1.48,7.79-1.63-.42-1.2-4.1-1.03-5.28Z"/>
  <path class="f" d="M157.45,130.83c1.95-6.91,3.38-14.12,3.94-21.35.29-3.72,1.28-18.42-5.09-17.47-5.66.85-3.2,7.08-1.82,10.53.22.62.83,3.12.3,3.53-.17.13-.45.03-.67-.08-.3.47-.43.2-.56-.28-.23-.1-.48-.11-.48.02-.13,1.92-.26,4.1-.01,6,.23,1.8.68,2.85,1.61,4.31l.52.27-1.88,12.88-.6.25c-2-.29-4.18-.47-6.05.5-.52.27-4.13,3.22-4.83,3.82-.63.54-1.2,1.92-1.69,1.36-1.17-1.31-1.6-3.53-4.09-2.68-4.51,1.55-3.82,12.96-2.44,16.53.27.69,1.46,2.38,1.49,2.7.06.66-2.39,2.16-1.91,2.6,2.71-1.1,6.91-3.37,9.9-2.78.7.14,2.79,2.33,4.45,2.8,1.37.38,3.18.01,4.05.41.22.1,1.86,1.79,1.92,2.01.41,1.52-4.97,13.17-5.52,15.58-1.25.76-2.76.83-4.2,1.38-4.6,1.78-7.24,3.77-10.16,7.7-.41.55-1.27,2.41-1.64,2.68-1.47,1.07-12.83.83-14.63-.13-.73-.39-1.99-2.82-2.72-3.7-1.03-1.24-2.6-2.27-3.49-3.62l-1.37-1.41c-2.84-6.84-4.37-14.22-5.31-21.47.38-.54.84-1,1.38-1.4.06-.03.11-.35.29-.41,2.46-.94,8.25,1.11,10.59,2.37.19-1.11-1.57-1.53-1.57-2.37,0-.43,1.32-2.55,1.59-3.34,1.05-3.18,1.11-7.47.36-10.71-.53-2.32-2.3-6.65-5.37-4.9l-2.11,2.35c-2.88-2.45-5.55-5.93-9.63-6.14l-.6-.18-2.16-9.24c-.23-.68.22-.98,1.37-.91-.06-.48.17-.83.69-1.03.82-1.04.96-7.04.65-8.42,0-.03-.29.12-.5.24-.13.69-.92,4.33-2.09,3.21-.17-.17-.17-.45-.15-.7-.03-.44-.16-.74-.39-.91-.1-.48.36-5.09.49-5.9.56-3.59,1.78-6.99,6.08-6.91,5.44-1.55,10.83-1.96,16.17-1.23,3.61,1.86,7.22,3.78,10.85,5.74.92.26,1.15.76,2.31.5,2.58-.57,5.43-7.63,6.34-9.99,1.21-.98,2.72-1.56,4.54-1.73,4.06-.52,7.85-1.06,11.36-1.62,2.6-1.44-1.08-7.13-2.37-8.66-.84-.99-6.26-5.29-6.27-5.72-.01-.39.56-.32.84-.3,3.15.28,8.48,4.1,10.6,6.43,9.54,10.47,7.82,28.34,5.48,41.23-.2,1.1-2.02,10.55-2.56,10.55-1.01-.99-1.95-2.1-3.21-2.79Z"/>
  <path class="ac" d="M154.94,90.08c-.73.4-.94.15-1.48.29-.23.06-.18.5-.39.54-2.57.59-6.03.68-8.79,1.21-1.78.34-3.51.83-5.25,1.31.26-.69.13-1.73.84-2.36,2.17-1.93,11.94-.55,15.06-.98Z"/>
  <path class="e" d="M146.85,127.2c-4.22-1.12-8.5-.59-11.97,2.12-1.47,1.15-3.23,4.36-5.15,3.15-3.52-2.21,2.38-6.37,4.38-7.27,4.04-1.83,10.05-2.07,12.74,2Z"/>
  <path class="at" d="M103.75,127.2c-.17,0-.57.45-.98.28-.61-.55,2.58-2.32,2.96-2.47,2.45-.98,5.8-.82,8.26.04,2.17.76,7.62,3.78,6.42,6.56-1.66,3.83-4.61-1.09-6.22-2.28-.71-.53-3.85-2.11-4.58-2.11-1.91,0-3.97-.11-5.86,0Z"/>
  <path class="al" d="M117.56,165.72c2.92-.64,16.78-2.54,17.99-5.03.33-.68-.16-3.66.56-3.62.17,0,1.44,2.21,1.81,2.65s1.1,1.17,1.54,1.53c.7.56,3.69,1.71,1.41,1.97-2.14.24-3.06-1.36-4.41-1.08-.67.14-1.69,1.13-2.43,1.49-4.61,2.27-10.36,3.48-15.49,2.65-.41-.07-.86-.01-.97-.56Z"/>
  <path class="ao" d="M128.71,158.74c-2,2.25-8.29,2.51-9.82-.36-1.63-3.06,1.83-6.3,3.08-9.03.29-.63,1.03-3.32,1.16-3.45.4-.4.51.03.56.42.19,1.45-.71,5.21-1.4,6.56.14.85-.27,1.67-1.22,2.45-1.37,1.5.86,2.8,2.27,2.85l5.1-.6c.61.18.56.65.27,1.16Z"/>
  <path class="af" d="M123.69,154.56c.44.25.46.71.07,1.36,1.08-.11,1.8.09,2.16.59,1.26.1,4.48.33,2.79,2.23.17-.8-.46-.6-.97-.57-2.34.16-4.73,1.43-6.84-.4s.52-3.16,1.4-4.89c-.02.92,1.02.98,1.39,1.67Z"/>
  <path class="d" d="M153.54,105.71c.59,1.36.81,2.91.65,4.64,1,7.49,2.58,2.45,1.67-1.35l.46-.5s-.13-1.01.57-.43c1.35,1.12,1.83,9.01-2.24,7.96-2.51-.65-2.36-6.56-2.24-8.52.04-.68.19-2.47.33-3.02.39-1.55.77.73.8,1.22Z"/>
  <path class="n" d="M123.13,170.74l.38-.22c2.44.44,4.89.25,6.93-1.28l.78.1c.05,3.18-3.96,4.27-6.48,3.28-1.21-.48-1.3-.81-1.61-1.88Z"/>
  <path class="bd" d="M123.13,170.74s-.41-.15-.28-.56c1.68.07,3.17,0,4.8-.36,1.25-.28,2.21-1.01,3.17-1.3.61-.18.4.43.4.83-2.35,1.9-5.22,2.48-8.09,1.4Z"/>
  <path class="x" d="M125.92,156.51c-.89-.07-2.97.45-2.66-.85.02-.1.4-1.06.43-1.1,1.5-2.11,4.04,0,2.23,1.95Z"/>
  <path class="b" d="M127.32,21.7c-2.16,2.76-3.41,6.61-4.38,9.99-3.63,12.64-2.36,22.87-2.03,35.65.06,2.44.1,8.02-1.16,10-1.13,1.78-6.86,4.33-9.01,6.06-.13.1-.99.7-.43.83l-.03.67c-1.78,1.38-3.75,2.97-4.43,5.19-.46.48-1.04.57-1.52,1.13-.83.96-1.82,3.15-1.82,4.45-2.34-1.36.29-8.1.53-10.22.26-2.28.09-3.22-1.83-4.53-1.21-.82-6.03-2.59-6.51-3.12l.53-.66c.87-.36,5.93-2.02,6.3-1.85.15.07.29.17.43.28,2.1.03,4.18.22,6.26.6-1.15-.46-2.39-.59-3.63-.61l-.39-.54-.07-.59c3.75-1.78,7.5-3.56,11.25-5.36l.54.36c-.28,1.08-.37,1.77-.88,2.89-.41.9-2.46,3.72-2.47,3.95-.03.78,1.47-.17,1.65-.3,7.33-5.29,2.97-21.8,3.35-29.86.28-5.98,3.1-21.23,6.19-26.18,1.51-2.43,2.52.8,3.59,1.77Z"/>
  <path class="l" d="M94.68,77.8c-.72-.79,1.25-2.33,2.04-2.85,4.93-3.24,11.19-1.85,15.11-4.98,1.46-1.16,2.52-3.28,4.61-3.34.36,1.15-.35,1.99-.56,2.79l-11.72,5.58c-.21.67-.95.85-2.23.56-2.54.59-4.76,1.86-7.25,2.23Z"/>
  <path class="l" d="M144.89,73.9c-.78-.03-2.27-1.49-3.35-1.4-.07-.08.2-.38.28-.55-.31-.49-.8-.59-1.47-.32l-2.69.88-.3-.28c-1.18.18-1.79-.75-2.68-.84-.99-.1-1.49.82-2.34.28-.8-1.41-2.15-2.89-2.24-4.6-.02-.43-.04-.49.42-.42.99.13,2.28,1.75,3.29,2.29,2.62,1.41,5.28.47,8.08.85,1.09.15,5.07,1.6,5.78,2.31.88.87-2.21,1.83-2.78,1.81Z"/>
  <path class="ay" d="M138.2,23.38c-2.52.19-5.08-.32-7.36-1.43-1.12-.54-5.26-3.2-4.91-4.55.42-.65,1.6-.19,2.28-.07,3.11.54,6.57,2.06,8.87,4.24.52.49,1.25.98,1.11,1.82Z"/>
  <path class="au" d="M135.69,25.05l-.07.62c-6.23,5.24-9.16,15.7-10.03,23.63-.69,6.27-.98,25.31,7.9,27.03.81.39.99.14.53-.75.87.08.6-.16.29-.71-.6-1.08-1.34-2.1-1.96-3.2,1.56-1.32,3.65-.84,5.02.56l.36.26,3.3-.95.81.41c1.51.3,2.53.95,3.07,1.95-2.03,1.36-.78,2.68.28,4.19-.34.48-1,.69-2,.64l1.51,1.79c.83.91.9,1.49.21,1.76l-.22.31c-2.42-.67-1.97-.59,1.34.25.14-.2.41-.41.57-.3,2.23,1.46,4.2,2.97,5.86,5.13l-.02.75c-3.85.12-8.69-1.12-12.43.26-2.67.98-2.3,2.91-3.47,5.04-.52-.36-.74-1.15-.64-2.35.45-1.26-1.72-2.13-1.82-1.34-.38,3.15-.62,7.06-.61,9.83-.52.64-.59,1.87-1.94,1.25-6.24-4.8-8.59-10.24-17.55-8.32-3,.64-7.77,3.29-10.51,3.18-.36-.01-.67-.12-.97-.29-1.02-1.74,1.3-6.03,3.35-5.58.77-2.47,3.22-4.2,5.36-5.53-.36.07-.66.05-.89-.33-1.71-.08.52-1.7,1.37-2.17l6.44-3.92c1.82-1.82,2.56-4.38,2.23-7.65-.63-10.07-.56-20.15.2-30.24.45-3.08,3.31-16.45,5.86-18.25.27-.19.57-.3.91-.29,1.42,1.3,6.37,2.93,8.37,3.35Z"/>
  <path class="l" d="M134.01,75.57c.86.5,3.69,1.51.41,1.41-6.62-.2-8.76-9.19-9.34-14.39-1.07-9.59-.04-19.39,3.85-28.23,1.11-2.53,4.11-8.54,6.74-9.3.6-.17,2.38-.55,2.45.42.03.48-4.9,6.44-5.64,7.7-5.93,10.14-10.64,35.3,1.51,42.4Z"/>
  <path class="l" d="M145.17,78.08c1.64.31,5.82,4.39,6.81,5.89.4.61,1.95,3.51,1.82,4-.14.54-.96.43-1.38.44-1.1-.98-1.92-2.29-3.07-3.21-.74-.6-2.61-1.94-3.35-2.37-.43.2-1.2-.03-1.12-.56.24-1.11-3.1-3.61-2.51-4.19.85.11,1.99-.15,2.79,0Z"/>
  <path class="l" d="M136.52,93.71c-.17,2.39-1.62,4.37-3.07,6.14-.85.2-.6-.8-.57-1.26.21-2.93.35-5.87.71-8.79,2.81-2.15,3.07,1.95,2.93,3.91Z"/>
  <path class="as" d="M110.3,84.22c.59-.31,2.64-.71,1.95.27-.11.15-2.53,1.62-3.07,2.1-1.2,1.06-2.24,2.33-3.34,3.49-.61-.5.4-2.05.71-2.49.6-.85,2.86-2.9,3.75-3.37Z"/>
  <path class="ag" d="M132.34,95.39c-.4.07-.38-.48-.47-.78-.34-1.08-2.61-7.8-2.31-8.15.57-.12.65.28.89.64,1.34,1.98,2.52,5.96,1.9,8.29Z"/>
  <path class="w" d="M144.89,82.27c.37.19.76.35,1.12.56.08.97-.19.37-.68.26-1.62-.37-3.48-.6-5.02-1.11-.85-.28-2.37-.53-2.11-1.66.64-.63,5.76,1.46,6.69,1.95Z"/>
  <path class="ak" d="M137.36,72.22c1.18-.18,2.95-1.81,4.74-1.11.11.4-.16.56-.28.84-1.26.23-2.5.63-3.77.83-.46.07-1.34.27-.69-.55Z"/>
  <path class="s" d="M104.16,75.01c1.15-.1,4.69.24,5.16,1.4.14.35-.11.36-.28.55-2.28-.66-4.94-.45-7.12-1.39.7-.16,1.57-.5,2.23-.56Z"/>
</svg>