<?xml version="1.0" encoding="UTF-8"?>
<svg id="a" data-name="Layer 1" xmlns="http://www.w3.org/2000/svg" viewBox="0 0 250 250">
  <defs>
    <style>
      .b {
        fill: #0a0706;
      }

      .c {
        fill: #ae2726;
      }

      .d {
        fill: #c1c2c3;
      }

      .e {
        fill: #b82722;
      }

      .f {
        fill: #80d6f1;
      }

      .g {
        fill: #f8f8f7;
      }

      .h {
        fill: #010101;
      }

      .i {
        fill: #0b0706;
      }

      .j {
        fill: #edebeb;
      }

      .k {
        fill: #e36859;
      }

      .l {
        fill: #030302;
      }

      .m {
        fill: #050705;
      }

      .n {
        fill: #df4039;
      }

      .o {
        fill: #5d8d3a;
      }

      .p {
        fill: #d93733;
      }

      .q {
        fill: #080c07;
      }

      .r {
        fill: #040405;
      }

      .s {
        fill: #e66c5d;
      }

      .t {
        fill: #2b0f0a;
      }

      .u {
        fill: #b52a24;
      }

      .v {
        fill: #f4f4f4;
      }

      .w {
        fill: #ea7b6b;
      }

      .x {
        fill: #da332f;
      }

      .y {
        fill: #b7312a;
      }

      .z {
        fill: #c1c1c1;
      }

      .aa {
        fill: #aa2223;
      }

      .ab {
        fill: #edecec;
      }

      .ac {
        fill: #bc302c;
      }

      .ad {
        fill: #c2c3c3;
      }

      .ae {
        fill: #7dcfe7;
      }

      .af {
        fill: #f6f8f8;
      }

      .ag {
        fill: #b02623;
      }

      .ah {
        fill: #d13b34;
      }

      .ai {
        fill: #139ed5;
      }

      .aj {
        fill: #c8c9c8;
      }

      .ak {
        fill: #d74341;
      }

      .al {
        fill: #1685b5;
      }

      .am {
        fill: #e52f2a;
      }

      .an {
        fill: #c4c5c5;
      }

      .ao {
        fill: #78ad46;
      }

      .ap {
        fill: #b32824;
      }

      .aq {
        fill: #1781b2;
      }

      .ar {
        fill: #e86d5c;
      }

      .as {
        fill: #e16e5a;
      }

      .at {
        fill: #0d0403;
      }

      .au {
        fill: #0d0302;
      }

      .av {
        fill: #0e0403;
      }

      .aw {
        fill: #cccecf;
      }

      .ax {
        fill: #040404;
      }

      .ay {
        fill: #c5c5c5;
      }

      .az {
        fill: #f4f5f3;
      }

      .ba {
        fill: #63933a;
      }

      .bb {
        fill: #171b0f;
      }

      .bc {
        fill: #d78e8a;
      }

      .bd {
        fill: #cbcece;
      }

      .be {
        fill: #1b8ec4;
      }

      .bf {
        fill: #a9d766;
      }

      .bg {
        fill: #0c0f08;
      }

      .bh {
        fill: #abd86b;
      }

      .bi {
        fill: #93c658;
      }

      .bj {
        fill: #b3dd77;
      }

      .bk {
        fill: #f5f5f4;
      }

      .bl {
        fill: #139fd7;
      }

      .bm {
        fill: #ae2824;
      }

      .bn {
        fill: #e42f2a;
      }

      .bo {
        fill: #af2926;
      }

      .bp {
        fill: #b73432;
      }

      .bq {
        fill: #d7cac8;
      }

      .br {
        fill: #d8312f;
      }

      .bs {
        fill: #f3f6f3;
      }

      .bt {
        fill: #c1c2c2;
      }

      .bu {
        fill: #e46c5d;
      }

      .bv {
        fill: #a3d560;
      }

      .bw {
        fill: #f3f3f1;
      }

      .bx {
        fill: #dcc9ca;
      }

      .by {
        fill: #d65043;
      }

      .bz {
        fill: #e3302a;
      }

      .ca {
        fill: #d5d3d4;
      }

      .cb {
        fill: #df3332;
      }

      .cc {
        fill: #76aa43;
      }

      .cd {
        fill: #da312c;
      }

      .ce {
        fill: #d0d0ce;
      }

      .cf {
        fill: #b22623;
      }

      .cg {
        fill: #ae2623;
      }

      .ch {
        fill: #e4302a;
      }

      .ci {
        fill: #e0725e;
      }

      .cj {
        fill: #e26c5b;
      }

      .ck {
        fill: #c6c6c7;
      }

      .cl {
        fill: #c3c3c4;
      }

      .cm {
        fill: #b22e2a;
      }

      .cn {
        fill: #b03430;
      }

      .co {
        fill: #e12f29;
      }

      .cp {
        fill: #e87263;
      }

      .cq {
        fill: #df3630;
      }

      .cr {
        fill: #080b07;
      }
    </style>
  </defs>
  <g>
    <path class="ax" d="M93.29,72.96c-.87.61-2.38-1.97-2.95-2.48-1.71-1.55-9.56-4.91-6.23-8.1,2.8-2.68,6.79,1.26,8,3.84.49,1.05,2.02,6.15,1.18,6.74Z"/>
    <path class="f" d="M91.74,69.54l-6.12-4.13c-.36-.53-.9-1.47-.34-2,3.61-1.13,5.59,3.37,6.45,6.14Z"/>
  </g>
  <g>
    <path class="r" d="M82.96,73.64c2.05-.28,6.22,1.85,7.06,3.67,1.07,2.3-1.97,1.18-3.09,1.24-1.78.08-6.31,1.94-6.94-.84-.47-2.1.92-3.79,2.97-4.07Z"/>
    <path class="ae" d="M87.39,77c-1.01-.1-6.54,1.64-6.19-.42.37-2.19,5.28-1.19,6.19.42Z"/>
  </g>
  <g>
    <path class="l" d="M134.67,70.13c.07.08,1.37.38,1.93.71,1.61.97,2.98,3.02,4.34,3.74,3.55,1.86,12.18,2.19,14.48,6.66.38.74.24,1.47.64,2.15.37.63,3.05,2.58,3.91,3.55,9.72,11.05,6.41,29.51,2.62,42.39,7.89,4.47,19.78,14.01,16.58,24.38-2.37,7.68-10.71,6.37-16.46,3.55-1.55-.76-3.4-2.41-4.76-3.02-.41-.19-.48-.23-.79.15-.97,5.28-1.14,10.66-1.74,15.98-.12,1.09-.85,3.02-.85,3.77,0,1.08,1.21,4.21,1.44,5.67,1.9,12.22-4.02,18.66-15.33,21.82.49,4.01,2.07,8.48,2.07,12.6,0,5.74-7.81,7.06-12.17,5.93-2.52-.66-13.99-7.92-15.47-10.02-2.06-2.92-1.55-6.32-.2-9.43l-9.18-3.1c-.19.19,1.68,4.85,1.84,5.07.25.36,1.09.5,1.59.98,1.5,1.43,6.21,9.02,6.21,10.89,0,3.22-4.9,5.82-7.53,6.77-4.32,1.56-16.89,4.42-21.09,3.51-4.41-.96-4.27-9.45-2.1-12.71,2-3.01,4.84-3.1,7.71-4.71-1.59-1.51-1.72-3.12-.08-4.66-1.93-3.65-3.99-7.31-5.56-11.14-2.05-4.99-5.14-12.6-.41-16.99,3.89-3.62,8.6-1.05,12.76-.92.84.03,1.44-.3,2.16-.32.56-.02,1.26.56,1.7.16-3.55-5.57-5.68-11.82-8.23-17.87-4.99,4.72-11.82,12.04-19.43,9.16-9.13-3.45-3.55-15.83-.13-21.57.6-1.01,2-2.34,2.38-3.22.42-.97.44-2.38.85-3.5,1.8-4.86,4.5-9.12,8.99-11.85-2.53-16.56-4.36-34.75,11.95-44.61.53-.32,2.6-1.09,2.69-1.21.13-.18-1.05-1.62.83-3.36,3.11-2.88,6.74-2.59,10.51-2.52,3.95.08,3.22-.44,6.17-1.93.66-.33,2.83-.78,3.04-1.07.29-.4,1.07-4.47,1.18-5.28,1-7.71-.59-16-4.04-22.93-1.46-2.92-5.22-7.01-4.55-10.22s7.28-5.97,10.11-6.36c5.11-.7,5.95.67,7.54,5.04,3.47,9.52,3.64,20.48,2.79,30.47-.11,1.35-1.34,8.94-.89,9.45Z"/>
    <g>
      <path class="bn" d="M155.15,135.75c.48.66,1.15,2.4,1.27,2.48s.75-.27,1.23-.17c.97.21,4.67,2.61,6.1,3.24,2.22.97,4.77,2.34,7.26,1.76l-13.35-6.86c-1.62-1.77-2.54-4.16-4.06-6.04-.41-.87,1.1-2.23,1.86-1.55,2.79.31,4.89,1.85,7.15,3.11,3.18,2.39,6.08,5.14,8.7,8.14,3.03,3.46,6.31,7.26,6.53,12.07-.11,1.08-.42,1.86-.93,2.8-5.31,2.51-11.84-.63-16.63-3.41l-7.04-4.68v-.46c-4.92-.02-8.04-2.2-11.49-5.41-1.64.51-3.27,1.1-4.88,1.77l-.67-.55c-.66-1.35-.76-1.4.18-2.78l5.11-4.99c-2.61.1-4.17,2.2-6.21,3.42-.93-3.15-.11-5.18,2.38-7.1.71-.55,3.32-1.72,3.52-1.92.83-.84-1.32-.54-1.57-.48-1.74.42-2.79,1.69-4.33,2.35.03-.89.27-1.68.62-2.49,1.12-1.18,3.66-2.23,5.26-2.6,4.67-1.07,11.82,6.61,14.01,10.37Z"/>
      <path class="ag" d="M153.6,85.39c2.27.02,3.87,1.95,4.87,3.8,4.19,7.68,4.99,14.57,4.24,23.25-.26,2.94-1.51,13.45-3.22,15.09-.18.17-.39.31-.61.45-1.5-.14-2.18-.14-3.42.62-.68.42-1.24,1.06-1.86,1.55-1.27-1.58-4.52-4.53-6.22-5.59.6-2.15.98-4.5,1.21-6.72.05-.51.26-1.35-.28-1.67l-.05-.65c1.52-1.28,1.01-3.62.42-5.27l.25-.3s.34-.29.3-.72c-.29-2.75-.34-5.56-.92-8.29-1.27.48-2.26,1.19-3.73.93l.31-.62c-3.17.75-5.73-1.38-8.69-2.04-7.65-1.69-10.53,3.36-16.81,5.29-1.71.53-1.6.66-3.1-.15,5.19-.51,7.72-7.02,12.93-7.74,6.56-.91,8.33,2.92,13.17,4.18,5.5,1.43,5.68-5.17,5.29-9.02-.09-.88-.99-3.1-.79-3.57.63-1.48,5.15-2.74,6.7-2.81Z"/>
      <path class="co" d="M95.16,128.29c.71.88,1.21,1.95,1.24,3.11-1.06-.72-2.16-1.36-3.41-1.72-.83-.23-2.72-.9-3.11.16,2.4.81,5.43,1.78,6.84,4.04.37.62.06.98-.93,1.08-1.79.04-3.56.1-5.29.17-.02.52,3.57,2.4,4.35,3.11.84,1.16.5,3.39-1.06,3.69-1.69-.61-2.99-.32-3.9.87-2.26,2.95-4.37,5.5-8.29,6.24l-.11.39c.4.32,1.06.49,1.55.62l.49.53c-.19,1.97-.75,5.29-1.24,7.21-.79,3.13-1.9,6.24-5.78,5.62-.91-.24-1.13-.39-1.86-.93-4.75-5.66.29-13.54,3.68-18.66-.21-.4-.09-.67.36-.92,1.14-7.06,8.02-18.95,16.47-14.61Z"/>
      <path class="ar" d="M94.54,125.49c-1.53-.82-3.51-1.21-5.24-1.28-1.39-.88-1.78-19.01-1.61-21.57.57-8.47,4.91-16.65,12.35-20.91,1.29-.74,4.58-2.76,5.69-1.31-.81.11-1.46.62-2.18.94-.17.07-.71-.07-1.22.17-2.43,1.14-7.33,7.04-6.81,9.86.2,1.1,2.25,2.38,2.12,3.77-1.18,3.77-2.92,7.81-2.79,11.85.03.77-.21,1.01.62.46.5.99-.13,1.61-1.86,1.86-1.11,2.01-.25,4.22.93,5.91-.83,3.32-.02,6.89,0,10.26Z"/>
      <path class="ch" d="M103.86,178.33l-.21.33c.85,1.68,1.35,6.68-1.73,5.12-1.18-1.16-2.41-2.2-3.69-3.12-1.69.6,1.6,12.12,2.36,13.76l-.46.7c-3.28.35-5.65,1.43-8.23,3.42-1.41-1.96-2.22-4.25-2.96-6.53-3.95-6.9-3.49-16.88,6.22-17.41,2.08.29,6.77,1.37,8.26,2.79.4.38.3.66.44.94Z"/>
      <path class="cf" d="M153.91,151.6l.46.51c-.95,7.01-1.62,14.09-2.02,21.25-.8.84-4.08,2.29-5.12,2.18-.71-.07-3.12-2.81-3.89-3.42.78-8.31-.12-16.92,1.24-25.18.76.34,1.42.77,2.24,1.02,4.33,1.31,3.54.58,7.08,3.64Z"/>
      <path class="bz" d="M129.66,167.77c.34.03.59.05.93.14,1.13.31,6.72,3.79,7.47,4.67,1.13,1.33.5,3.01.31,4.51-.79,1.22-2.03,2.92-3.2.79-2.45-5.21-3.41-6.05-3.96.5.12,3.16.5,6.29,1.14,9.4l-.51.81c-3.03-.33-5.61.54-8.39,1.56-.86-2.97-1.66-5.96-2.18-9.01.07-.85.6-1.87,1.55-1.71-.68-.41-.88-1.4-.62-2.96-.24-1.31-.03-2.18.62-2.64-.24-.11-.57-.31-.52-.5.85-3.52,3.33-6.99,7.36-5.56Z"/>
      <path class="ai" d="M106.04,188.9c.42-1.81.48-5.44.32-7.32-.15-1.76-.86-3.1-1.24-4.67-.1-.43,0-.57.44-.44,1.52.46,5.35,2.8,6.79,3.78,2.31,1.58,4.33,3.54,6.28,5.54l-.78-2.48c.53.1,1.78-.19,2.13.04.46.3,2.59,9.28,2.84,10.53.23.44.27.72-.15,1.03-.97.72-13.3-4.02-15.49-4.91-.22-.09-.41-.26-.61-.45s-.37-.41-.53-.64Z"/>
      <path class="bl" d="M154.53,183.62c.07,4-.57,6.82-3.11,9.95-1.1.88-3.13.46-4.37-.07-2.07-.89-7.37-6.55-9.12-8.49l.12-.76c.75-1.38,2.05-5.91,2.18-7.46l1.01-.12c3.19,2.75,6.49,5.28,9.92,7.59,1.04.54,1.98.28,2.63-.67l.73.04Z"/>
      <path class="e" d="M76.51,163.41c6.11-.32,5.15-9.05,6.53-13.37.41.11,2.4.23,2.49.31l-1.55,7.77c.78-.55,1.33-1.64,1.7-2.49.5-1.15,1.29-5.26,1.46-5.53.08-.12,1.36-.52,1.79-.86.95-.74,2.51-3.21,3.7-1.17.19.33,1.56,5.14,1.45,5.4-.16.35-4.63,4.69-5.29,5.27-3.5,3.01-7.46,5.94-12.27,4.67Z"/>
      <path class="aq" d="M138.05,184.24l7.67,7.72c1.7,1.47,3.6,1.45,5.7,1.61-1.47,1.81-3.24,3.1-5.32,4.16-1.16.59-5.83,2.59-6.81,1.92-.73-.5-2.56-11.12-3.29-12.77.06-.43,1.74-2.04,2.06-2.63Z"/>
      <path class="cg" d="M176.91,154.71c-1.65,3.04-4.66,3.49-7.9,3.08-4.12-.52-13.03-6.41-16.18-9.31-1.64-1.51-.34-.86.46-2.16-3.35.57-5.87.7-8.68-1.43-1.23-.94-2.88-3.99-4.07-1.69.56-.1,2.21,1.5,1.86,1.87-2.33.74-5.19-1.02-6.22-3.11,1.69.1,4.2-2.1,5.68-1.82.89.17,3.39,2.99,4.68,3.74,2.5,1.48,4.14.99,6.25,1.83,2.27.9,6.45,4.4,9.11,5.81,3.14,1.67,6.31,3.06,9.89,3.48l5.12-.31Z"/>
      <path class="al" d="M106.04,188.9c5.21,1.93,10.44,4.18,15.9,5.39.59.13,1,.58.88-.42.02.1.38.31.33.76-.1,1.13-1.39.67-2.22.93-2.16.69-3.5,1.76-4.96,3.45-1.72-.45-10.38-2.76-11.2-3.72-1.86-2.17.74-4.16,1.26-6.39Z"/>
      <path class="cd" d="M158.88,127.98c1.68-4.44,2.66-9.72,3.11-14.46.74-7.94.49-15.63-3.36-22.74-1.15-2.12-2.48-4.9-5.03-5.39,1.23-.05,1.89-.13,2.91.67,10.08,7.92,8.61,25.63,5.96,36.64-.21.87-1.38,5.82-1.86,5.86-.55-.24-1.11-.52-1.72-.58Z"/>
      <path class="bs" d="M151.42,181.13c.23-1.58.28-3.16.13-4.74l.49-.54c.32-.13.62-.82,1.24-.62.57,2.78,1.2,5.55,1.25,8.39-1.78,2.77-3.82,1.2-5.87-.19-2.96-2-5.3-4.91-8.43-6.65.14-1.72-.49-3.29-.16-4.97,2.05,1.67,4.09,3.37,6.07,5.12,1.09.96,3.92,4.44,5.28,4.2Z"/>
      <path class="ap" d="M138.36,177.09c-.26,2.02-.87,5.39-2.23,6.94-.28.32-.3.66-.88.52-.5-2.66-.9-5.56-1.64-8.15-.2-.71-.51-2-1.15-2.42-.15,5.25,1.26,10.34,2.49,15.38-1-.06-2.14-.67-3.11-.77-.56-4.17-1.89-9-.9-13.17,1.54-6.45,4.44,2.68,5.41,2.92.67.16.9-1.64,2.02-1.24Z"/>
      <path class="u" d="M103.86,178.33c1.72,3.28,1.1,7.41.31,10.88-4-.38-3.36-6.11-5.9-8.39.28,2.83,1.21,5.59,2.16,8.24.63,1.74,2.01,4,2.49,5.59.25.82-2.2.4-2.79.46-.96-3.81-3.58-9.53-2.73-13.45.79-3.62,4.52,2.18,5.67,1.95,1.25-1.67.57-3.21.23-4.89-.17-.85-.15-.86.55-.4Z"/>
      <path class="bw" d="M97.64,212.83c-4.73.56-9.41,2.2-13.05,5.29-.45-4.23,2.3-8.08,6.67-8.4,2.44-.18,5.64.42,6.38,3.12Z"/>
      <path class="v" d="M141.16,212.84c-7.05-5.61-16.57-14.82-25.64-7.46-.09-4.68,7.93-5.02,11.28-4.13,3.46.91,11.45,6.86,13.59,9.72.44.58.89,1.06.77,1.87Z"/>
      <path class="bo" d="M94.85,138.24c1.68,1.54,2.26,2.57,1.19,4.77-.58,1.18-2.69,3.35-4.11,2.99-1.09-.28.29-1.85.09-2.58-.09-.34-.65-.7-.9-.51-.27.2-1.54,3.89-3.44,5.11s-4.18.79-6.2,1.41c-.22-.18-.46-.07-.31-.62,1.53-.81,3.27-1.26,4.67-2.33,1.59-1.22,3.92-5.31,5.46-5.45,2.76-.25,3.04,1.9,3.55-2.8Z"/>
      <path class="bk" d="M109.77,212.21c1.37-.36,1.4-.1,1.24,1.24-3.96.39-8.88,1.19-12.8,1.96-4.87.96-9.79,2.42-12.99,6.43-1.83-2.82,3.12-5.15,5.29-6.06,3.5-1.46,15.57-3.76,19.27-3.58Z"/>
      <path class="cl" d="M128.73,205.68l-11.43,4.31c-2.23-.72-2.52-2.8-.49-4.25,3.24-2.31,8.82-2.61,11.92-.05Z"/>
      <path class="cb" d="M105.11,204.13c1.41.14,2.77,2.03,1.86,3.11-.96,1.24-1.11,4.16-1.27,4.33-.24.26-6.58,1.02-6.91.91-.52-.17-1.07-1.54-.82-1.81.04-.05.62,0,.89-.19.49-.33,3.34-2.32,3.41-2.52.64-1.88-1.81-1.93-1.81-2.44,1.19-.99,3.13-1.39,4.66-1.4Z"/>
      <path class="z" d="M133.08,208.17l-11.69,4.66c-.54.21-3.35-1.33-3.54-1.56-.18-.21-.05-.77.44-.64l11.89-4.57,2.9,2.1Z"/>
      <path class="cp" d="M177.84,151.91c-2.25-8.44-9.61-13.99-15.23-20.2,7.21,4.02,16.2,10.84,15.23,20.2Z"/>
      <path class="as" d="M95.16,128.29c-1.73.15-3.41-.68-5.37-.25-2.87.64-7.8,6.63-8.98,9.36-.76.61-1.65,5.53-2.12,5.49.2-4.8,3.43-11.99,7.15-15.08,2.79-2.31,6.97-2.48,9.33.47Z"/>
      <path class="az" d="M131.21,201.64c-3.55-1.43-7.29-2.94-11.13-1.65l-3.78,1.19c3.28-6.32,12.26-6.23,14.92.46Z"/>
      <path class="aj" d="M136.5,210.36c.04.05.12.66-.18.64l-10.62,4.28c-1.21.2-2.33-.91-3.18-1.66l11.18-4.7c.37-.13,2.7,1.32,2.8,1.44Z"/>
      <path class="d" d="M97.96,216.57l-5.91,6.67c-7.3,1.61-6.86-1.54-1.25-4.36,2.22-1.12,4.76-1.74,7.16-2.31Z"/>
      <path class="cq" d="M152.35,173.36c-.52-.7-.38-2.12-.32-2.97.31-5.24.68-10.61,1.26-15.83.1-.89.25-2.17.62-2.96.41.35,1.01.53,1.4.94.39.63-.65,5.76-.78,6.99-.36,3.54-.36,7.74-.97,11.15-.24,1.33-.3,1.72-1.21,2.68Z"/>
      <path class="g" d="M99.82,196.67c.47-.07,1.16-.15,1.57.08.26.15,2.21,4.75,2.44,5.43l-.27.7c-.51.04-.9.46-1.54.17-.6-.27-.98-1.42-1.57-1.87-1.45-1.09-3.3-.75-4.91-.26-1.41.43-1.95,1.77-2.71-.24-.44-1.17,1.21-2,2.13-2.52,1.7-.96,2.97-1.22,4.87-1.5Z"/>
      <path class="s" d="M95.16,174.6c-4.89,1-8.38,4.63-8.08,9.79.13,2.15,1.17,5.51,1.86,7.62-4.3-7.74-6.85-19.24,6.22-17.41Z"/>
      <path class="k" d="M129.66,167.77c-2.78-.28-4.59.87-5.85,3.32-.21.41-.99,2.46-.99,2.74v5.59c0,.31-1.11,1.55-1.55,1.71-.67-3.9-1.72-9.78,1.76-12.7,1.68-1.41,4.76-1.88,6.64-.67Z"/>
      <path class="ad" d="M126.24,215.95l11.11-4.31c.8-.11,1.9,1.16,2.56,1.67l-10.74,4.51c-.75.04-2.4-1.22-2.92-1.87Z"/>
      <path class="cj" d="M74.64,162.48c-3.84-2.84-2.81-7.6-1.48-11.58.57-1.69,3.34-7.48,4.58-8.47.73-.58.61.44.94.47-.01.26.32.69.24,1.04-.12.52-2.75,4.23-3.3,5.38-1.63,3.39-2.66,6.66-2.19,10.5l1.21,2.67Z"/>
      <path class="p" d="M93.34,206.89c-.09-.05-.98-1.71-.94-1.93.19-1,3.44-2.82,4.48-2.98,3.01-.45,5.56,1.92,2.3,3.23-.64.26-1.32.1-1.87.31-.76.29-3.46,1.67-3.97,1.37Z"/>
      <path class="ci" d="M155.15,135.75c-2.49-3.42-7.19-7.95-11.19-9.48-3.35-1.28-3.97,1.03-7.15,1.09l.31.61h-1.24c.98-2.23,3.95-3.57,6.38-3.43,4.46.26,11.21,7.14,12.89,11.21Z"/>
      <path class="an" d="M103.55,215.95c.07.05-.49.91-.62,1.08-.43.56-4.49,4.97-4.8,5.15-1.01.58-3.31.53-4.52.91,1.66-1.53,4.23-5.5,6.04-6.54.46-.27,3.61-.82,3.9-.6Z"/>
      <path class="br" d="M139.3,202.89c-1.65,0-2.68,1.44-3.26,2.8-.53-1.04-4.42-2.94-3.12-4.04s2.62-.73.79-3.1c2.63.22,4.77,1.78,5.59,4.35Z"/>
      <path class="ay" d="M140.85,214.39c.68,3.16-3.6,4.54-6.05,4.67-.56.03-4.02-.18-4.21-.32-.63-.47.23-.54.44-.65,2.92-1.47,6.7-2.6,9.81-3.7Z"/>
      <path class="bt" d="M109.46,215.01l-5.3,5.73-4.34,1.1,5.29-6.05c1.31-.66,2.91-.83,4.35-.78Z"/>
      <path class="af" d="M133.08,190.46c.27.47,1.28,3,1.09,3.28-.15.24-.49.23-.78.14-.69-.97-2.44-1.55-3.58-1.58-1.34-.03-5.23,1.46-5.44,1.27-.34-.3-.42-1.79.33-2.31,1.96-1.35,6.16-1.36,8.37-.8Z"/>
      <path class="bd" d="M99.82,196.67c1.19-.18,2.94-.81,4.01.5.33.4,2.41,5.49,2.21,5.72-.86-.32-1.62-.07-2.48,0-1.15-1.54-1.62-4.2-2.59-5.65-.37-.55-.33-.71-1.14-.57Z"/>
      <path class="x" d="M133.08,197.29l-3.44-.45-4.64-2.03c3.08-1.28,8-2.26,8.08,2.48Z"/>
      <path class="ck" d="M113.81,214.7c1.37,1.39-6.28,5.99-7.77,5.59,1.13-1.18,4.01-5.17,5.29-5.75.83-.38,1.64.27,2.48.16Z"/>
      <path class="aw" d="M133.08,190.46c.46.12,2.21.77,2.41,1.01.73.9.81,5.06,1.63,6.3-2.42.06-3.13-1.92-3.73-3.89,0-.02.27-.23.22-.42-.26-.98-1.25-1.99-.53-3Z"/>
      <path class="ac" d="M107.59,208.48c.46-.92.95-1.54,2-1.86.28.06,2.29,3.38,2.36,3.88.09.64-.06.41-.47.47-1,.14-2.23.2-3.27.31-.65-.37-.85-1.3-.62-2.8Z"/>
      <path class="y" d="M90.5,135.13c.04-1.16,5.32-.1,6.22-1.24.72,1.16.8,1.88.64,3.28-.22,1.9-.85.51-1.78-.12-1.47-1-3.22-2.03-5.08-1.92Z"/>
      <path class="n" d="M96.71,145.07c1.33-1.77.5-1.63,2.95-2.8.23-.11.31-.56.63,0,.46.81.61,2.55,1.39,3.42l-4.35.31c.04-.47-.18-.79-.62-.93Z"/>
      <path class="be" d="M152.04,175.85c.4.92.39,5.11-.62,5.28.02-.95-2.88-3.8-2.49-4.35.98-.33,2.18-.56,3.11-.94Z"/>
      <path class="ak" d="M139.6,204.14c.19.16.81,4.29.94,4.96-.66-.52-3.24-2.32-3.37-3-.17-.86,1.74-2.55,2.43-1.97Z"/>
      <path class="bp" d="M98.27,141.34c-.22-1.82.67-3.32.64-5.13-.02-1.56-.74-2.74-.8-4.2,2.38,1.72,2.48,7.58.16,9.33Z"/>
      <path class="cn" d="M134.01,140.1c-2.28-1.75-2.07-6.83-.46-9.01.43,1.38-.49,2.79-.48,4.18.01,1.54.91,3.28.94,4.83Z"/>
      <path class="ab" d="M98.58,209.41l-1.26.49-4.02-1.72c.8-.76,6.15.06,5.28,1.23Z"/>
      <path class="aa" d="M105.11,204.13c1.38,0,2.9.17,3.72,1.41.17.46-1.52,1.27-1.86,1.7-.43-1.12-.83-2.37-1.86-3.11Z"/>
      <path class="ah" d="M127.8,138.23c-.51-.41,1.76-1.61,2.03-1.86.38-.35.3-.96.77-.94l.18,2.5c-.41.57-2.26.19-2.98.29Z"/>
      <path class="ce" d="M109.77,212.21c1.75-.68,3.32-.76,3.73,1.24-.82.06-1.67-.08-2.49,0l-.93-.31.62-.93c-.31-.02-.62.01-.93,0Z"/>
      <path class="j" d="M97.03,206.93c.18-.57,1.86-.34,2.3-.28.61.1,1.31.25,1.73.75-1.05,1.65-2.52-.47-4.03-.47Z"/>
      <path class="w" d="M108.21,211.28c-.41.04-1.5.47-1.54-.15-.01-.14.75-2.29.92-2.65.77.61.52,1.89.62,2.8Z"/>
      <path class="by" d="M103.24,139.17h-1.56s0-1.24,0-1.24c.28-.32,1.49.88,1.55,1.24Z"/>
      <path class="ca" d="M133.08,200.4c-.45.45-1.7-1.5-1.86-1.86.37-.34,2.2,1.52,1.86,1.86Z"/>
      <path class="bq" d="M93.6,109.33c0-.13-.37-.56-.31-.61.08-.07,1.44-.28,1.96-.62.31-.2.18-.6.21-.64.05-.05.24.05.31,0,.17,1.5.97,5.55-.62,6.39-1.79.95-1.53-3.85-1.56-4.53Z"/>
      <path class="bx" d="M148.31,109.95c.24,1.17.9,4.89-.61,5.16s-1.4-1.49-1.57-2.37c.05-1.04.33-2.03.86-2.99l1.01.19c.09-.02.2.01.31,0Z"/>
      <g>
        <path class="am" d="M103.55,81.35c-1.95,1.75-4.54,3.46-5.85,5.81-.66,1.19-1.72,3.43-.37,4.45,1.03.21,2.09.28,3.16.2v.73c3.56.54,7.06,1.06,10.52,1.55,1.44,3.55,1.44,8.2,5.28,10.26l1.48.12c3.61-1.38,7.08-3.09,10.43-5.12,4.36-2.08,8.58-1,12.59,1.2,1.36.51,2.84.88,4.27.42.66.38,1.56.22,2.68-.49.78-.07.92.1,1.25.78.39.79,1.05,8.37.7,8.64-.21.16-.51.11-.77.04-.18.59-.45.59-.62,0-.06.28-.17.27-.31,0-1.59.77-1.99-.32-1.86-1.86l-.53-.07c-.64,1.31-.51,8.51,2.19,7.7l.52.45c.26-.11.62-.24.75-.08.66.79-.36,7.75-1.68,8.48-3.64-2.29-7.37-2.43-10.98.05-2.41,1.65-1.74,3.05-2.79,4.52-.31.44-1.54.94-2.04,1.84-.6,1.09-.71,2.62-.67,3.84l-1.01-3.8c-1.29-2.78-4.28-4.09-6.09-.97-1.67,2.88-1.13,9.53.02,12.63.32.85,2.04,3.29,2.03,3.49-.01.17-1.38,1.54-1.17,1.7,3.57-1.1,7.13-2.17,10.88-2.49.1-.08-.4-.62-.47-.62h-4.51l1.09-4.35c.46,1.1,2.1,1.25,2.56,1.63.23.19.99,1.93,1.62,2.58,1.18,1.22,3.43,2.36,5.14,2.34,1.95-.02,1.39-1.01,3.57-.02l.4,1.54c-.41,7.67-.8,15.31-1.16,22.93l-.48.7c-1.13-.9-4.69-3.64-5.88-3.91-1.01-.23-1.96-.01-2.91-.2s-2.32-1.25-3.34-1.64c-7.26-2.71-12.61,1.42-12.44,9.02.02.76,1.09,6,.79,6.05-3.5.68-5.22-1.87-7.95-3.55-2.7-1.66-5.56-2.17-6.81-5.16-2.24-1.96-9.03-24.37-7.97-25.44,1.21-.15,2.42-.27,3.62-.36,2.3.21,3.71.91,5.81,1.5.19.05,1.08.65,1.02-.1-.05-.55-1.49-1.02-1.55-1.09-.09-.13,1.45-2.14,1.71-2.79,1.58-4.01.91-9.76-.77-13.67,2.82,2.52,5.41-1,4.62-3.85-.38-1.36-.92.98-1.93.71-.21-.06-2.23-2.55-2.85-3.07-2.6-2.19-5.95-3.57-9.38-2.56-.4.12-2.85,1.42-2.26,1.93,3.67-.29,6.95,1.93,9.32,4.51l-2.19,1.23-1.53,2.65c0-1.41-2.24-1.9-2.64-2.49-.25-.37-.18-1.02-.41-1.45-.65-1.18-1.66-2.25-2.86-2.89l-.64-.68c-.37-3.01-.41-6.01-.12-9l.76-.58.31-.6c2.63-.47,2.13-5.66.93-7.17-.08.28-.18.28-.31,0-.07.37-.63.74-.93.61-1.54-.64,1.68-11.3,2.49-13.02-2.72-3.76-2.78-5.06-.23-8.87.79-1.18,1.85-2.5,2.9-3.45.81-.73,3.28-2.7,3.85-1.38Z"/>
        <g>
          <path class="bu" d="M97.33,146.01c-.01.18-.43.57-.31.93,1.12.08,2.31-.1,3.42,0-.54.85-3.22-.31-3.09.75.42,3.51,1.91,8.83,2.94,12.3,1.18,3.96,2.91,8.94,4.51,12.74-2.52-3.42-4.48-7.57-6.06-11.51-.67-1.66-4.93-13.66-4.49-14.27.04-.06.87-.23,1.21-.5.45-.35.91-.93,1.26-1.39.74-.92,1.7.39.62.93Z"/>
          <path class="c" d="M111.01,94.1c-.45.26-.02.99-.64.8-3.89-1.19-7.96-1.18-11.87-2.13-.31-.08-.94-.09-.86-.53l2.79-.31c-1.03-.13-2.25.33-3.11-.31,2.81.19,10.96-.16,13.05,1.41.57.43.43.6.63,1.08Z"/>
          <path class="h" d="M135.56,121.46c.46.53-.09.52-.45.63-2.16.64-3.45.62-5.56,1.91-2.39,1.46-6.84,6.89-9.06,6.8-2.97-.12-3.53-5.04-2.49-4.99,1.69,3.08,3.21-.51,4.67-1.86,2.62-2.42,5.94-4.2,9.6-3.71.48.07,3.09,1,3.29,1.22Z"/>
          <path class="au" d="M124.69,153.16c-.1,1.07.06,2.01.68,2.9l2.74,2.69c-1.59.23-2.74-.44-3.88-1.45-4.96,1.32-9.88,3.66-15.08,3.62-.15-.81.15-.55.62-.76,2.14-1,5.51-1.96,7.85-2.74.96-.32,5.51-1.37,5.84-1.62.74-.56-.34-2.73,1.23-2.65Z"/>
          <path class="av" d="M117.23,154.09c-2.25,3.17-8.99,2.39-8.72-2.34.12-2.11,1.66-2.57,2.77-4.09.89-1.23,1.11-2.03,1.57-3.41.16-.48-.27-.89.65-.73.69,4.02-.63,4.51-2.49,7.15-1.07,3.97,3.38,3.48,6,3.13l.22.29Z"/>
          <path class="bm" d="M113.5,164.04c-.02-.09-.87-.3-.62-.93,1.89.08,3.86.06,5.76.01,1.3-.03,4.2-1.11,3.01,1.46s-5.17,2.25-7.24,1.19c-1.83-.94-.8-1.28-.92-1.73q3.66,1.11,0,0Z"/>
          <path class="i" d="M148.31,116.17c-4.3,2.07-3.89-8.22-2.79-9.32.77-.78.58,1.13.62,1.24l.29,1.41c.13,1.25.04,2.33-.29,3.25l.66.15c.82,4.21,1.75-.69.98-2.46l.54-.48c.2-.02.42.01.62,0,.09.48.66,1.19.79,1.85.3,1.48.12,3.63-1.42,4.37Z"/>
          <path class="b" d="M95.78,107.46c.09-.06.04-.49.62-.31,1.11,1.96,1.79,8.52-1.86,8.08-1.93-.23-2.07-3.58-1.79-5.07.09-.49.23-.91.86-.84l.62.28c.11,7.42,1.97,2.04,1.03-1.32.25-.21.42-.48.52-.83Z"/>
          <path class="cm" d="M111.01,150.67c.46,4.14,3.49,2.85,6.53,2.8.18.59-.23.51-.31.62l-4.2.32c-1.72-.17-3.12-1.38-2.58-3.22.12-.39.5-.42.56-.52Z"/>
          <path class="bc" d="M146.14,108.09c.41,1.17.66,1.57,1.86,1.86-1.85.48-.5,2.31-.93,2.8-.58.65-.84-1.61-.93,0-.3-1.54-.6-3.07,0-4.66Z"/>
          <path class="t" d="M116.6,131.4c-2.31-.3-2.4-3.19-1.86-4.97l1.86,4.97Z"/>
          <path class="at" d="M113.5,164.04l4.19.31,3.26-.93c-.92,2.63-5.8,2.46-7.46.62Z"/>
        </g>
      </g>
      <g>
        <path class="o" d="M126.24,32.24c1.55-.73,3.04-2,4.35-3.11,2.85,8.17,4.1,16.98,3.75,25.66-.25,6.34-3.04,17.45-1,23.04.19.52,2.47,4.53,3.17,3.82-1.42-2.82-2.43-6.14-2.18-9.32.08-.11.17-.2.28-.24.91-.33,4.39,4.44,4.87,5.35,1,1.47,2.43,1.46,4.05,1.38.99.09,2.09.82,1.06,1.6-.8.72,2.14,1.26,2.49.62-1.03-.47-1.02-.85.06-1.25.5-.19,5.32,1.59,5.9,2.08.65.56,1.34,1.23.26,1.65-2.17.78-8.73,1.81-8.39,5.1.07.66.66,1.34.79,2.03.35,1.75.67,7.69-1.19,8.5-1.19.52-5.78-2.54-7.26-3.15-3.96-1.63-8.05-2.04-11.9.14-2.19,1.23-6.19,5.72-7.79,6.22-.9.29-1.37-.14-1.87-.81-.35-.88-.19-6.5.17-6.76.22-.16.51-.13.76-.08v3.73c.97.94,5.78-3.7,6.93-4.41,3.85-2.36,7.47-2.6,11.78-1.4,2.17.6,5.99,3.11,7.57,3.33.6.08.73-.71.73-1.11.06-3.17-2.11-8.3-5.04-9.83s-5.36-.2-7.62-4.19c-2.94-5.19-.9-11.05-.37-16.42,1.03-10.36.62-20.06-3.05-29.89-.31-.82-.62-1.68-1.3-2.28Z"/>
        <path class="bh" d="M108.21,79.18c-1.23-.89-2.84-1.23-4.35-1.24.24-2.24,4.76-3.3,6.67-3.43,2.08-.13,4.26.6,6.16.25s3.25-2.35,5.2-2.41c-.41,1.19-.99,2.3-1.55,3.42-.9.12-4.51,1.2-4.66,1.86l-.43.11c-1.19-.88-1.67-.92-1.43-.11-1.24-.26-2.16-.44-3.44-.17-.28.06-2.37.71-2.47.8-.05.05.3.63.31.93Z"/>
        <path class="ao" d="M134.32,72.34c.02-.21-.13-.63.15-.62,1.89.69,2.89,2.64,4.36,3.73,2.31,1.71,6.49,1.99,9.33,3.1,1.12.44,7.07,3.24,5.73,4.98-.19.07-.47-.05-.61,0,.41-.58.46-.81-.21-1.19-.73-.41-4.61-1.62-5.6-1.86-.83-.2-.87-.12-.4.56-.39.62-2.48.22-2.49-.62-.09-1.48-2.12-.81-3.19-1.01-3.63-.65-3.58-6.26-7.07-7.08Z"/>
        <path class="bi" d="M128.11,29.13c-3.52.07-4.34.56-6.96,2.7l-1.13.72c-1.02.19-2.05.41-3.11.31-1.1-1.13,3.51-4.09,4.36-4.5,1.27-.62,7.48-2.86,8.07-.91.25.82-.78,1.29-1.23,1.69Z"/>
        <path class="ba" d="M128.11,29.13c-1.97,1.71-5.54,2.94-8.08,3.42,1.37-2.79,5.12-4.78,8.08-3.42Z"/>
        <path class="q" d="M144.58,80.42c.26.03,2.37.56,2.49.62.05.03.67.9.62.93-2.61-.25-5.12-.87-7.77-.62-.15-.89.19-.52.72-.66,1.15-.32,2.75-.4,3.94-.27Z"/>
        <g>
          <path class="cc" d="M126.24,32.24c1-.53,1.54,1.03,1.82,1.89,4.02,12.51,4.66,24.14,2.2,36.96-.67,3.82-.11,10.42,4.01,12.01,4.98.66,7.59,2.97,9.26,7.76,2.73,7.85-2,5.76-6.59,3.07-7.75-3.04-12.01-.7-17.77,4.3-2.54,1.9-3.39.72-2.56-3.52l-.57-.41c.47-1.79,1.15-6.26-1.05-2.42-.45,1.26-1.05,2.1-1.8,2.52-.48-.77-.52-1.75-1.1-2.47-1.97-2.48-10.52-1.76-13.51-1.88-.21-.53.24-.73.31-.93l.42-.05c2-3.12,4.76-5.7,8.28-7.72.42-.92.7-.87.62-2.18-1.76-1.3.41-2.1,1.81-2.28,1.26-.16,2.5.24,3.78.73.41-.49.97-.42,1.68.21l.18-.21-.32-.62c.61-.68,4.38-2.3,4.98-1.24-.79,1.58-1.76,3.05-2.49,4.66.53.39,1.09.31,1.67-.22,11.83-7.02,7.69-34.53.72-44.17-.7-1.08-.73-1.39.4-1.92,1.54-.38,4.18-1.2,5.59-1.86Z"/>
          <g>
            <path class="bf" d="M120.65,34.11c.85.43-.5.08-.3.76.23.77,1.7,2.6,2.22,3.7,4.74,9.93,7.17,25.42,2.7,35.76-1.11,2.56-4.52,6.65-7.33,7.28-1.03.23-1.14.18-1.02-.86,1.33.76.81-.2.93-.31,2.19-1.95,3.08-2.25,4.57-5.22,6.27-12.49,3.18-29.35-4.88-40.32-.1-.69.1-.36.46-.45.81-.2,1.95-.15,2.64-.32Z"/>
            <path class="bv" d="M116.61,94.72c0,.07-.28.35-.32.75-.23,1.95.05,4.23-.61,6.09-.9-1.2-2.6-5.65-2.49-7.15.07-.92,2.34-5.17,3.25-4.97,1.37,1.29.39,3.51.17,5.28Z"/>
            <path class="bj" d="M107.59,81.35s.41.17-.28.78c-2.06,1.83-4.39,2.77-6.41,5.12-.35.4-1.85,3.78-2.01,1.87,1.21-3.53,5.42-6.31,8.7-7.77Z"/>
            <path class="cr" d="M120.65,89.44l-2.95,7.77c-.92-.97-.19-3.3.22-4.44.18-.48,2.08-4.01,2.73-3.33Z"/>
            <path class="bg" d="M143.02,94.1l-3.27-3.1-3.57-2.49c2.94.03,6.22,2.73,6.83,5.59Z"/>
            <path class="m" d="M113.81,83.53c.15.89-.2.51-.72.66-2.18.62-4.56.79-6.74,1.51,1.74-2.2,4.86-2.3,7.46-2.17Z"/>
            <path class="bb" d="M115.67,77.62c-.02.1.57.57.15.62-.69-.09-1.37-.38-2.02-.62-.76-.29-1.63-1.21-2.8-.93-.19-.9.43-.63,1.1-.63,1.34-.01,2.75.43,3.57,1.57Z"/>
          </g>
        </g>
      </g>
    </g>
  </g>
</svg>