<?xml version="1.0" encoding="UTF-8"?>
<svg id="a" data-name="Layer 1" xmlns="http://www.w3.org/2000/svg" viewBox="0 0 250 259">
  <defs>
    <style>
      .b {
        fill: #0c120d;
      }

      .c {
        fill: #070808;
      }

      .d {
        fill: #060607;
      }

      .e {
        fill: #6daa48;
      }

      .f {
        fill: #a9e1f5;
      }

      .g {
        fill: #0a75a7;
      }

      .h {
        fill: #ea8979;
      }

      .i {
        fill: #010101;
      }

      .j {
        fill: #dd3b34;
      }

      .k {
        fill: #e78374;
      }

      .l {
        fill: #b32828;
      }

      .m {
        fill: #f1efee;
      }

      .n {
        fill: #bddfee;
      }

      .o {
        fill: #080c07;
      }

      .p {
        fill: #b92b27;
      }

      .q {
        fill: #c8cccc;
      }

      .r {
        fill: #050404;
      }

      .s {
        fill: #ae2624;
      }

      .t {
        fill: #a11713;
      }

      .u {
        fill: #f8f9f9;
      }

      .v {
        fill: #f7f6f4;
      }

      .w {
        fill: #ad2525;
      }

      .x {
        fill: #b82f2d;
      }

      .y {
        fill: #030403;
      }

      .z {
        fill: #aa2224;
      }

      .aa {
        fill: #0f140c;
      }

      .ab {
        fill: #daeaef;
      }

      .ac {
        fill: #d73d3a;
      }

      .ad {
        fill: #dddcde;
      }

      .ae {
        fill: #020101;
      }

      .af {
        fill: #dd3b35;
      }

      .ag {
        fill: #b22a26;
      }

      .ah {
        fill: #0b0b0b;
      }

      .ai {
        fill: #e48071;
      }

      .aj {
        fill: #e1796d;
      }

      .ak {
        fill: #0c77a9;
      }

      .al {
        fill: #b32a28;
      }

      .am {
        fill: #0d9fd9;
      }

      .an {
        fill: #e28776;
      }

      .ao {
        fill: #080504;
      }

      .ap {
        fill: #a6d079;
      }

      .aq {
        fill: #e68173;
      }

      .ar {
        fill: #0a0d0c;
      }

      .as {
        fill: #55883e;
      }

      .at {
        fill: #dd3a34;
      }

      .au {
        fill: #100906;
      }

      .av {
        fill: #92c767;
      }

      .aw {
        fill: #e58273;
      }

      .ax {
        fill: #f3f3f3;
      }

      .ay {
        fill: #afe3f6;
      }

      .az {
        fill: #f8fafb;
      }

      .ba {
        fill: #fcfcfc;
      }

      .bb {
        fill: #6dad47;
      }

      .bc {
        fill: #df3a34;
      }

      .bd {
        fill: #a5d27a;
      }

      .be {
        fill: #050403;
      }

      .bf {
        fill: #070604;
      }

      .bg {
        fill: #e03934;
      }

      .bh {
        fill: #bd2a26;
      }

      .bi {
        fill: #a3d275;
      }

      .bj {
        fill: #070705;
      }

      .bk {
        fill: #ab2425;
      }

      .bl {
        fill: #1b261a;
      }

      .bm {
        fill: #7cb556;
      }

      .bn {
        fill: #bdbdb9;
      }

      .bo {
        fill: #ae2728;
      }

      .bp {
        fill: #de3b33;
      }

      .bq {
        fill: #e03933;
      }

      .br {
        fill: #fdfdfd;
      }
    </style>
  </defs>
  <path class="y" d="M78.61,151.38c1.83.14,5.45.26,6.85-.99,1.66-1.48,1.11-3.8,1.48-5.45.05-.22,1.1-.69,1.5-1.25,2.47-3.5-1.35-9.57-5.17-10.56-.28-2.36.32-10.55,2.69-11.62,3.22-1.45,9.45,3.39,11.6,5.75l6.75,23.79h-.02s.48,1.98.48,1.98c1.05,1.48.22,3.04.19,4.51-.16,7.58.17,15.15-.64,22.7.36,1.85,3.7,2.68,4.17,3.5.08.15-.18,2.67-.17,3.35-.75,4.2-.99,8.51-.71,12.95.44,5.5.65,10.95.61,16.35-1.44,1.96-1.48,3.47-.75,5.74-.45,4-1.16,7.97-2.13,11.92-.21,1.23-.14,2.42.64,3.44.72,5.44,5.45,6.59,10.01,7.01,10.63-.24,9.01-11.87,6.68-19.07-.29-1.12-.38-2.24-.28-3.37,1-2.43.63-4.05-1.08-5.94.02-10.15.24-20.41.67-30.77,1.44-.58,2.5-1.39,3.18-2.41l.87-11.5c1.03-.41,1.45.31,1.26,2.15-.74,4.91.11,9.12,2.55,12.6,2.56,2.88,9.34,2.37,9.85-1.78,1.96-3.31,1.4-9.9,5.2-11.99,1.46-1.14.78-10.3,1.15-10.7,2.06.84,3.75,1.35,6.03.85.92-.2,1.93-1.13,2.47-1.16.86-.05,1.97.71,3.31.62,2.7-.19,3.52-1.84,5.32-2.72.54-.27,5.63-1.86,6.07-1.87l3.21-1.89,2.13-1.51c12.84-11.41-.61-26.85-10.73-34.32-.93-.68-6.1-3.74-6.3-4.06-.54-.85.93-5.65,1.18-7.01,2.68-14.76,5.75-32.98-9.25-42.32-.63-.39-3.01-1.27-3.11-1.41-.1-.13.77-.77.37-1.84-1.08-2.83-6.52-4.08-9.21-4.2-.87-.04-1.57.49-2.58.3-1-.18-2.58-1.57-3.58-2.12-.76-.42-2.33-.62-2.62-1.38-1.48-7.96-.35-16.26,3.55-23.36,1.34-2.44,6.51-8.19,6.42-10.28-.16-3.9-8.14-7.55-11.54-7.54-3.63,0-5.14,4.99-6.18,7.86-1.69,4.66-2.85,9.75-3.33,14.7-.63,6.61.39,12.92.32,19.51-2.73-.47-4.58,3.27-6.31,3.87-3.91,1.35-11.48.83-13.99,5.7-.57,1.11-.05,1.65-.22,2.14-.15.41-2.41,2.3-2.96,3.01-8.21,10.55-5.75,25.06-2.53,37.02-3.23-1.32-7.66-1.81-11.01-.67-6.82,2.33-9.31,12.84-9.69,19.18-.14,2.26.25,4.82.02,7.03-.16,1.49-.89,2.99-1.02,4.66-.49,6.42,1.14,12.32,8.36,12.86ZM151.18,140.71l3.03-11.36c2.7,2.06,5.38,4.19,7.5,6.85.91,1.14,3.38,4.66,3.24,6.01-.1.99-5.47,2.59-6.4,2.5-.44-.04-3.2-2.38-4.16-2.85-1.09-.53-2.13-.68-3.21-1.14Z"/>
  <path class="d" d="M71.72,75.49c1.79,1.87,7.52,2.38,9.56,4.79.35-3.87-3.43-9.39-7.51-9.37-2.62,0-3.8,2.76-2.05,4.59Z"/>
  <path class="ay" d="M79.95,77.94c-.87-2.29-3.44-6.01-6.18-5.97-1.66.02-2.51,1.94-.95,2.92l7.13,3.05Z"/>
  <path class="c" d="M79.94,87.29c.9-1.23-4.87-3.02-5.85-3-2.11.03-4.71,2.04-3.19,4.2,1.63,2.32,6.88-.99,9.03-1.2Z"/>
  <path class="f" d="M77.94,86.95c-.94-1.68-6.56-2.1-6.36.17.18,2.07,5.16-.04,6.36-.17Z"/>
  <path class="l" d="M99.64,69.26c-10.15,10.77-6.76,28.7-3.53,42.03,4.22,14.22,8.09,28.59,11.59,43.1l.61,1.31c3.26,2.8,9.14,4.21,13.35,4.67-.55-.93-1.68-1.02-2.5-1.67-7.72-6.07-8.18-20.43-10.18-29.37-.27-.3-.44-.61-.33-1l-6.34-27.7c-.44-.33-.93-.21-1.45.36-2.26,1.22-3.26-4.72-1.55-5.03-.05.26-.08.7.08.84,1.32,1.21,2.06-2.1,1.92-3.18l.47-.07c.04.76.33,1.12.87,1.08-.23-2.25.15-8.34,2.91-8.94.95-.21,1.94.03,2.89-.11,3.38-.51,7.31-1.73,10.69-1.26,3.77.52,7.07,5.41,11.88,4.98-3.54-1.85-7.26-7.31-11.26-7.93-3.81-.6-12.78,3.97-14.77,2.76-1.27-.77-1.12-5.26-.99-6.67s1.23-4.28.95-5.28c-.24-.81-4.33-2.7-5.29-2.91Z"/>
  <path class="am" d="M109.32,158.72l-.68.27-1.25,21.23c-.06.45.14.85.6,1.2,3.76,2.34,8.47,2.84,12.68,1.67l.71-.55c.31-4.01.62-8.02.92-12.02l-.64-.44c-.32-.11-1.07-.25-1-.66,4.6.11,9.38-.11,13.52-2.34.52.21-.18.89-.17,1-1.12.73.21,6.32.84,6.69.32.19.81.11,1.16-.02,2.51-.31,3.53-.63,5.67-2,.92-.88.92-3.14.33-4.17l.67-.38c.22-.98.28-4.88-.67-5.3,1.67.21,1.27-4.3.33-5.17-1.42.35-2.89,1.57-4.34,2.16-8.77,3.61-20.27,3.2-28.7-1.16Z"/>
  <path class="as" d="M127.68,20.2c-.6-.45-1.39-1.82-2.17-2.34-.37-.25-.22-.52-.66.01-.71.86-1.66,3.43-2.09,4.58-2.2,5.87-3.74,14.01-3.78,20.28-.04,5.69,3.01,19.69-2.86,23.15-.34.2-1.15.66-1.45.22,1.49-1.69,2.46-3.66,3-5.84l-.65-.45c-2.41,2.06-4.62,3.03-7.67,3.83-.64.3-1.06.54-.69,1.29-.04.28.03.5.26.63l-3.6.03c-.98-1.11-5.34.36-5.01,2,1.42.78,5.85,2.49,6.27,3.91.69,2.29-2.77,8.71-.6,10.78,1.51-1.13,1.59-2.78,2.67-4.34.42-1.14,1.18-2.11,2.02-2.98l-.02-.7c2.17-4.13,7.88-5.39,10.14-9.38,2.68-4.73,1.03-10.1.86-15.14-.32-9.45.73-18.76,4.63-27.44.33-.74.65-1.7,1.39-2.11Z"/>
  <path class="at" d="M108.32,155.71c.66-.31.12-1.06,0-1.5-1.39-5.12-2.41-10.21-3.7-15.33-4.44-17.66-14.42-41.45-9.89-59.34,1.01-3.98,2.87-6.82,4.91-10.28-.18-.04-.38-.35-.67-.16-11.98,10.61-8.5,26.98-4.91,40.62,3.91,14.85,9.52,29.26,12.75,44.32.24.79.93,1.18,1.5,1.67Z"/>
  <path class="bp" d="M119,204.78c.24-4.62.26-9.25.06-13.87l-.58-2.01c-2.78-.8-5.56-1.54-8.32-2.23.09,1.4.04,2.76-.17,4.09-.1,1.48-.03,3.17,0,4.67l.66.35c2.62-1.99,1.11,8.66.07,3.33l-.73-.34.34,10.17c.53,2.76,8.28,2.12,8.67,0,.2-1.08-.02-2.95,0-4.17Z"/>
  <path class="br" d="M114.49,231.67c-2.23.03-5,1.38-6.13,3.36-.82,1.43.82,3.08,1.95,3.97,2.2,1.71,5.02,1.9,7.58.89,7.02-2.76,2.32-8.3-3.41-8.22Z"/>
  <path class="u" d="M109.32,158.72c-.23-.12-2.32-2.07-2.67-1.67-.36,1.69.37,3.65.36,5.17,0,.71-.35,1.37-.36,2.01-.07,5.02-.06,10.03-.7,15.02.02,1.3,1.14,1.61,2.03,2.17l1.34-22.7Z"/>
  <path class="ac" d="M107.65,233.82c4.07-4.58,10.21-4.4,14.35,0l-1.89-11.24c.29-1.26.77-2.43.56-3.77-.46.17-.97,1.22-1.18,1.66-1.54,3.3-.14,2.4.12,4.25.08.55-.31,1.06-.27,1.59.06.85,1.27,1.85.16,2.86-.61.55-4.42-.04-5.7-.02-1.78.02-4.14,1.46-3.82-1.46.08-.73.28-2.77.38-3.29.12-.61.85-1.02.8-1.6-.12-1.36-1.49-2.87-1.52-4.32-1.48.94.05,2.81.01,4.49-.08,3.42-1.78,7.37-2.01,10.86Z"/>
  <path class="bo" d="M119,204.78l1-19.69c-3.48.6-6.62.14-10.01-.67v6.34s.3-.38.35-.81c.09-.93-.09-1.93-.01-2.86,2.52,1.31,5,1.55,7.71,2.2,1.22,4.96,1.06,10.36.97,15.49Z"/>
  <path class="ba" d="M117.66,211.79c-2.28.71-5.09.44-7.34-.33l.33,6.67c.9-.06,1.19-.82,2.19-.98.69-.11,3.93-.16,4.49-.02.22.2.61.37.73.2.48-.66.62-5.18-.4-5.54Z"/>
  <path class="e" d="M117.66,60.25c.17-.69.59-1.67.17-2.33-2.19.48-3.4,3.05-5.17,3.84s-4.71.73-6.75,1.26c-1.69.45-5.61,2.03-6.45,3.57-.47.87.16.63.84,1.01,1.58-1.43,3.07-1.58,5.01-2,1.45.17,2.57-.06,3.34-.67,1.38-1.36,3.6-1.26,5.36-2.15,1.31-.67,2.26-2.05,3.65-2.52Z"/>
  <path class="av" d="M141.7,64.59c.14,0,2.04-.79,2.54-.97.37-.13.92-.16.46-.7-.27-.31-3.62-1.76-4.26-1.92-2.28-.56-5.05-.03-6.84-.51-.94-.25-2.49-1.98-3.42-2.25-.68-.2-.55.36-.43.77.4,1.39,1.5,3,2.27,4.24,1.28-.46,2.13-.14,3.34,0l2.91-.87-.24.53c.35.47,3.41,1.68,3.67,1.67Z"/>
  <path class="az" d="M142.36,157.72c-.07,1.38.09,2.8.01,4.18-.02.43-.35.87-.35.99v5.67c0,.11-.31.56-.35.99-.08,1.05.07,2.13.01,3.18.83-.53,1.82-.91,2.27-1.9-.09-4.36,1.31-8.86.23-13.13-.2-.31-1.51-.06-1.83.01Z"/>
  <path class="ak" d="M121.67,170.07l-1,13.02c.48-.13,2.24-.49,2.34-.9l1.01-10.63c.14-1.4-1.38-1.16-2.35-1.49Z"/>
  <path class="g" d="M136.02,174.74c-.85.2-.94-.86-1.09-1.4-.4-1.43-.83-3.81-.91-5.27-.59,1.07-4.58,2.23-4.86,2.65-.07.1.18,2.19.26,2.46.33,1.1,4.38,1.91,5.48,1.92.69.01.97-.33,1.13-.35Z"/>
  <path class="bm" d="M136.69,21.53c.84-.72-4.21-3.81-4.78-4.06s-5.93-2.11-5.89-.78c2.33,3.23,6.7,5.19,10.67,4.84Z"/>
  <path class="w" d="M139.69,178.75c.6-1.16,1.23-2.28,1.33-3.67-3.25,1.76-6.48,1.94-10.01,1,.08.99.58,1.81,1,2.67,1.94,2.08,5.71,2.08,7.68,0Z"/>
  <path class="j" d="M112.33,222.81c1.12-.73,4.63.03,5.28-.38.71-.45.73-3.6-1.13-3.95-3.7-.69-5.99.45-4.16,4.33Z"/>
  <path class="bn" d="M130.01,182.08c-.16,1.64,2.4,3.85,3.87,4,1.78.17,4.99-1.74,4.64-3.67-3.02,2.73-5.46-.59-8.51-.33Z"/>
  <path class="ax" d="M108.32,239.16c1.79,5.16,11.46,4.91,13.35-.16l-2.6,1.74c-3.76,1.54-7.65,1-10.75-1.58Z"/>
  <path class="bc" d="M88.29,108.98c-.4.48-1.08.68-1.69.8-3.15,0-6.03.73-8.66,2.21-5.67,6.09-4.14,14.7-5.01,22.03.54,3.11.55,6.42.03,9.92l.3,2.76c1.66,3.32,6.2,3.44,9.48,2.97,3.55-.5,3.64-7.37-.13-7.64-.34.36,1.74,3.49,0,4-.62-3.24-1.29-1.72-3-.33-.07-2,2.64-3.34.33-4.67,2.76-.87,5.26-.34,7,2,1.5-2.26-.2-5.88-2.22-7.29-.91-.63-2.26-.93-3.11-1.72-1.46-5.23-1.87-14.95,5.03-16.28,3.27.08,4.39-.28,4.93-3.51.17-1.03.36-3.62-.28-4.24-1.07-.46-1.81-.79-3-1Z"/>
  <path class="l" d="M91.29,109.99c-.74,1.83.2,4.83-1.14,6.37-.91,1.05-2.32.5-3.61.73-2.46.43-4.25,1.8-5.27,4.08-1.25,2.8-2.03,10.63.34,12.86-.18-3.72-.14-13.76,4.83-14.36,3.79-.46,6.97,1.97,9.85,4.01l-3.72-13.13c-.2-.72-.97-.42-1.28-.55Z"/>
  <path class="an" d="M72.94,134.02c-.13,1.12-.82,2.33-.97,3.54-.34,2.89-.01,6.52,1.3,9.14.55-.35.33-1.27.34-1.83.03-2.88.63-7.15.35-9.7-.08-.76-.11-1.16-1.02-1.15Z"/>
  <path class="ai" d="M77.94,111.99l5.27-1.24c1.54-.16,3.21,0,4.65-.69.58-.28.97-.45.43-1.08-4.01-.7-7.49-.06-10.35,3Z"/>
  <path class="h" d="M109.99,195.43c.02,1.05-.13,2.35,0,3.34.45,3.38,2.37,3.52,2.69.18.17-1.86.16-5.7-2.69-3.52Z"/>
  <path class="af" d="M132.02,178.75c.9,1.86,1.33,3.06,3.84,3.03,2.36-.03,2.89-1.19,3.84-3.03l-3.83,1-3.84-1Z"/>
  <path class="v" d="M118.66,228.48c.16-.17,0-1.19-.32-1.51-1.24-1.21-7.01-.97-7.35.68-.28,1.34,3.08.13,3.84.14s3.7.84,3.84.69Z"/>
  <path class="m" d="M118.33,225.47c.18-.19-.07-.9-.3-1.19-.75-.95-3.34-.92-4.45-.73s-3.44,1.19-1.45,1.91c1.1-.97,5.99.24,6.21.01Z"/>
  <path class="q" d="M117.66,211.79c.11,1.13.02,2.35,0,3.51,0,.56.21,1.48-.34,1.83.35.09,1.16,1.22,1.67,1.34v-7.34c-.09-.12-1.12.6-1.33.67Z"/>
  <path class="bq" d="M161.72,120.33c-1.53-1.09-3.02-2.4-4.84-3.01-.24,0-.48,2.25-.51,2.67-.99,3.47-.39,6.28,1.79,8.43,4.05,3.15,7.1,6.64,9.7,11.14.76-.17,1.05.09.85.79-1.17,3.46-5.62,5.18-9.01,5.68l1,3c-.91-.74-1.8-1.55-2.67-2.34-2.58-.49-5.21-2.15-7.33-3.81l-1.34-.53c-3.24.17-9.36,2.41-7.01,6.68l.48-.12c1-2.22,2.93-2.76,5.2-2.89.34.1,1.6-.22.84.68-1.59,1.87-6.2,1.58-5.52,6.33l.69.46,4.25-1.87c.89-.34,2.49-.79,2.73.41-1.96,2.11-6.7,3.14-4.67,7.01.8.87,1.61.68,2.57.1,1.27-.98,2.63-1.65,4.09-2,2.37,3.42,6.93,2.5,10.03.24,7.4-1.99,15.18-5.33,15.02-14.35-2.98-8.86-9.91-16.13-16.11-22.26l-.24-.44Z"/>
  <path class="al" d="M156.38,120l-1.85,7.67c5.12,3.22,10.09,7.73,11.87,13.69.7.51,2.09-3.09,2.33-1,.55-1.64.05-.56-.62-1.54-1.36-1.98-2.48-4.12-4.06-5.96s-5.87-4.87-6.81-6.55c-.78-1.41-.94-4.69-.86-6.32Z"/>
  <path class="aw" d="M178.08,143.03c-.16-9.06-9.44-17.79-16.36-22.7-.82.31.12.89.34,1.17,3.71,4.72,8.75,8.82,11.74,13.96,1.43,2.47,2.17,5.53,4.28,7.57Z"/>
  <path class="bk" d="M146.37,159.05c1.19,2.28,4.09,2.88,6.34,1.5-.33-1.71-1.6-.66-2.67-.99l2.84-2.17c.48.24-.34,1.1-.17,1.32.1.12,2.5,1.27,2.82,1.37,3.24,1.03,5.29-.61,7.53-2.69-2.07.56-4,1.54-6.18,1.34s-3.37-2.04-4.3-2c-2.54.1-3.82,2.71-6.21,2.33Z"/>
  <path class="aq" d="M149.37,142.36c2.12,2.66,5.55,3.86,8.52,5.34l.16-1c-2.73-2.47-4.81-4.54-8.68-4.34Z"/>
  <path class="s" d="M143.36,153.04c.07.5.93,2.57,1.5,2.33.43-.18.79-1.1,1.21-1.46,1.12-.98,3.46-2.88,4.97-1.87.18-.2.62-.07.18-.68-1.37-1.87-6.17,1.15-7.85,1.68Z"/>
  <path class="x" d="M143.03,156.04c-1.51-2.24-1.34-4.93-2.5-7.34-1.81,1.24.84,8.64,2.5,7.34Z"/>
  <path class="z" d="M142.36,149.04c.27.48.21.44.67.17.73-.42,1.41-1.61,2.49-2.19.88-.47,1.74-.47,2.51-.99-2.49-.7-5.2.2-5.67,3Z"/>
  <path class="ad" d="M129.35,181.08h1.67c.03-1.37-1.7-1.37-1.67,0Z"/>
  <path class="t" d="M130.35,179.41c.09-.1-.5-2.3-1-2.33-.35.48.29,3.12,1,2.33Z"/>
  <path class="ao" d="M102.64,94.63c-.12-.51-.69-2.58-1.33-2-.06.3.08.78,0,1-.08,2.41-.98,10.94-1.52,2.93l-.49-.59s.14-1.26-.68-.51c-1.36,1.24-.78,6.23,1.56,6.45.46.04,1.94-.97,2.12-1.27.75-1.26.66-4.57.33-6.01Z"/>
  <path class="n" d="M99.31,95.97c-.7,1.24-.02,5.99,1.68,4.18,1.32-1.41.47-4.74.33-6.52-.3.82-.73,1.66-.99,2.52-.21.32-.83.03-1.02-.18Z"/>
  <path class="bb" d="M127.68,20.2c-.18-.08-.35-.15-.53-.17-1.22-.15-3.64,7.7-4.07,9.27-2.65,9.6-2.38,19.33-1.43,28.99.1,3.7-1.17,7.2-4.32,9.29-2.72,1.56-5.03,3.49-6.93,5.81l.26.88.55.19c-1.06.98-2.07,2.09-2.55,3.48h-.8s-1.25,2.58-1.25,2.58c-.6.61-.81,1.2-.63,1.76.43.41.53.39,1.12.33,3.87-.44,8.03-3.39,12.69-2.96,4.31.4,8,5.61,11.39,7.92.64-.41,1.04-1.03,1.5-1.61,0-2.55.18-5.47.41-8.12.14-1.59,2.06,2.33,1.29,2.98l.63.47c.8-.96.6-2.45,1.38-3.46,1.74-2.27,8.9-1.58,11.57-1.31.54.06,1.39.38,1.74-.24-1.7-1.64-3.56-3.11-5.57-4.4l-.78.4c-.42-.39-.94-.65-1.56-.77l.22-.23c.98-.57.64-1.49-1.02-2.77.82,0,1.27-.3,1.35-.9-.87-.93-1.44-1.76-.67-3l-.12-.72c-1.13-.56-2.32-.87-3.56-.95-.66-.35-1.55-.24-2.67.33-.2-1.17-3.42-1.42-3.34,0,.56.89,1.29,1.68,1.67,2.67-.25.97-2.71-.43-3.33-.94-2.83-2.3-3.58-5.72-4.1-9.26-1.62-11.02.53-22.48,7.29-31.58l.14-1.28c-1.02-.18-5.16-2.03-6.01-2.67Z"/>
  <path class="bd" d="M133.68,22.87c-3.9,4.88-6.78,11.46-7.91,17.62-1.1,5.97-1.19,19.17,2.91,23.93,1.01,1.18,3.59,2.74,5.16,2.53,1.45-.19.61-.67-.16-1.02-11.51-5.26-7-28.21-1.34-36.89.78-1.2,4.13-4.95,4.34-5.67.27-.92-2.36-.38-3-.49Z"/>
  <path class="bi" d="M142.36,67.6l-2.33.34c.12,1.42,2.21,1.77,2,3.34.33.34.77.68,1.34,1,.99.39,2.02,1,2.83,1.68,1.31,1.1,1.7,2.79,3.51,2.33-.51-2.49-2.34-4.67-4.18-6.33-.89-.8-2.39-1.52-3.16-2.35Z"/>
  <path class="ap" d="M135.02,81.28c.22-1.78-.17-5.75-2.5-3.67-.12,2.41-.29,4.79-.5,7.19-.05.63-.3,1.34.66,1.15,1-1.25,2.14-3.05,2.34-4.67Z"/>
  <path class="aa" d="M129.01,74.94c-.27.29,2.35,6.48,2.17,7.67.95-1.07.08-3.72-.33-5.01-.1-.31-1.15-3.41-1.84-2.67Z"/>
  <path class="b" d="M110.65,74.27c-.93.87-1.98,2.35-2,3.67.75-1.08,2.32-2.61,3.33-3.51.53-.47,2.16-1.31,2.34-1.67.28-.56-.21-.55-.69-.36-.92.37-2.25,1.18-2.98,1.86Z"/>
  <path class="ar" d="M143.36,72.27c-.23-.82-.84-.75-1.34-1-1.13-.59-4.01-1.82-5.17-1.67-.23.03-.7.53-.18.84,1.06.64,5.16,1.24,6.68,1.83Z"/>
  <path class="bl" d="M135.35,63.26c1.1.12,1.46.04,2.67-.33.62-.19,1.91-.14,1.67-1-1.61-.2-3.13.23-4.34,1.33Z"/>
  <path class="o" d="M105.31,65.59l6.67,1c.23-.74-.58-.9-1.09-1.06-.36-.12-2.06-.6-2.25-.6-.89-.04-2.39.46-3.34.67Z"/>
  <path class="bg" d="M121.67,160.39c6.62.73,12.68-.59,18.69-3.34-1.28-3.34-3.36-6.36-.85-9.7,1.2-1.6.82-1.34,1.71-2.95,1.39-2.5,5.6-3.44,8.19-3.89,3.18-13.73,7.5-27.73,9.26-41.74,1.56-12.41.23-28.12-13.73-32.9-1.47-.5-2.29-.41-.88.88s3.18,2.35,4.48,3.87,4.13,5.73,2.17,7.35c-4.44.24-8.78.94-13.02,2.09l-.67.91c-.99,2.4-3.02,8.08-6.01,8.34-3.61-1.34-7.04-3.09-10.3-5.24-4.01-.68-8.13-.39-12.37.87-3.19-.13-4.61.18-5.73,3.37-.82,2.34-.71,4.1.02,6.35-.49.75-.61,1.83-.35,3.27-.29,1.06-.28,1.97.02,2.74l-.48.87c2.03,8.86,4.06,17.73,6.09,26.59l.74.24c.93.57,1.04.91.33,1l-.49.9c.61,5.08,1.8,11.74,3.2,16.64,1.57,5.46,4.05,11.88,9.97,13.49Z"/>
  <path class="p" d="M137.02,80.95c1.32-.5,2.88-1.02,4.26-1.25,3.24-.55,5.83-.66,8.92-1.43.37-.09.33-.19.5-.33-2.76.43-11.11-.98-12.88.97-.61.68-.53,1.34-.81,2.03Z"/>
  <path class="k" d="M149.71,105.98c-.58,1.69-.8,3.73-1,5.51-.63,5.58-1.46,11.42-1.69,17.01-.08,2.04.67,3.53,1.86,1.18,1.59-3.16,3.39-12.49,4.28-16.42,2.07-9.14,4.94-20.81,2.8-30.05-.73-3.13-2.44-5.34-5.88-3.41s-.97,6-.27,8.56.71,5.69.57,8.44c-.04.82.24,1.09-.67.5-.58.2-.59.48,0,.67.72,2.87,1.49,3.65,2.34,2.34.2-.03.36-.03.39.02.25.54.34,1.1.42,1.68.37,2.66-.02,4.82-3.14,3.97Z"/>
  <path class="i" d="M116.66,131.68c-.2.19-1.86-.96-2.34-1.16-2.53-1.04-4.93-1.38-7.67-1.18.13-.52,1.46-.82,1.91-.92.69-.14,1.4-.08,2.09-.08-.14-1.37-1.58-4.45-.46-5.3.45-.34,3.44-1.02,2.8-1.7l-3.34-1.87c.19-2.65,2.03-8.77,5.53-5.83,2.77,2.32,2.41,10.17,1.31,13.36-.24.69-1.44,2.37-1.43,2.52,0,.34,2.1,1.7,1.61,2.16Z"/>
  <path class="ae" d="M140.02,129.35c-3.03.15-4.97.68-7.68,2-.19-.87,1.21-1.33,1.3-1.88.03-.17-1.25-2.45-1.45-3.14-.84-2.8-.79-7.39.13-10.18,1.45-4.39,4.6-4.69,6.12-.08,1.34,4.08-.02,3.3-2.76,5.6.49.15,3.19,1.23,3.3,1.38.24.33-.61,4.1-.91,4.81.46.87,1.6.32,2.28.49.29.07,1.97.79,1.67,1-.66.03-1.34-.03-2,0Z"/>
  <path class="be" d="M105.81,108.32c-.08,0-.57.72-.83.17,2.31-2.95,6.6-3.07,9.91-1.9,1.67.59,6.53,3.5,5.41,5.52-1.87,3.36-3.39-.42-5.19-1.72-.7-.51-3.63-2.06-4.28-2.06-1.62,0-3.43-.12-5.01,0Z"/>
  <path class="r" d="M144.03,108.65c-3.42-.66-7.06-.53-9.99,1.53-1.5,1.06-2.78,4.11-4.53,2.49-2.91-2.7,4.01-6.34,6.38-6.65,2.89-.38,6.48-.05,8.15,2.64Z"/>
  <path class="bj" d="M115.66,135.35c.19.2.12,2.26.66,2.85,1.31,1.42,8.86,1.98,10.87,1.84,2.22-.15,4.3-1.05,6.49-1.18-3.78,3.21-9.79,3.18-14.42,2.07-1.06-.26-3.36-1.48-3.83-1.52-.56-.05-1.15,1.02-2.01,1.21-.79.18-1.63.04-2.43.07,1.65-1.36,2.42-1.3,3.5-3.33.17-.33.5-2.69,1.17-2Z"/>
  <path class="bf" d="M121,135.69c0-.8.62-1.1,1.85-.92,2.59.71,7.4.26,3.95-3.16.21-.28.33-.59.21-.92-.87-1.83-1.58-4.36-1-6.34l1.38,3.79c1.02,2.36,3.6,4.3,2.37,7.14-1.21,2.78-7.06,2.36-8.76.42Z"/>
  <path class="bh" d="M121,135.69c-1.65-1.89.96-2.09,2.34-2l.41-.62c1.2.44,1.84.2,1.93-.71.25-.88,1.53-.76,1.34-1.67.65,1.36,3.01,2.56.84,4.34-2.07,1.7-4.71-.28-6.85.66Z"/>
  <path class="ah" d="M149.71,97.3c-.07-.62.24-.77-.66-.67-.4,2.17-.85,7.67.66,9.35,1.04,1.16,3.04.92,3.52-.65.42-1.37.28-3.97-.52-5.19-.36-.54-.81-.84-.67.17l-.5.5c.39,1.57.1,6.74-.87,2.54-.04-1.91-.36-3.71-.97-5.38-.01-.22.03-.45,0-.67Z"/>
  <path class="ag" d="M127.01,145.03c1.07,1.06-1.62,2.13-2.25,2.26-1.78.37-4.39-.59-4.43-2.6l.37-.2c2.06.69,4.16.87,6.31.54Z"/>
  <path class="au" d="M120.33,144.7c0-.22,0-.45,0-.67,2.58.79,4.7.68,7.34.34.07.35-.4.5-.67.66-2.12,1.27-4.59.75-6.68-.33Z"/>
  <path class="aj" d="M125.67,132.35c1.49,2.34-1.48,1.39-2.34,1.34-.91-2.09,1.13-3.22,2.34-1.34Z"/>
  <path class="ab" d="M152.04,100.31c-.08-.06-.65.15-.91-.07-.28-.25-.51-2.05-1.43-2.27.06,1.09-.24,8.16,1.83,7.68,1.22-.28.88-5.05.51-5.34Z"/>
</svg>